<svg xmlns="http://www.w3.org/2000/svg" height="1000" width="1000" version="1.1" xmlns:xlink="http://www.w3.org/1999/xlink" xmlns:svgjs="http://svgjs.com/svgjs"><rect fill="#ffffff" width="1000" height="1000"></rect><g><path d="M595.9 398.35H363.5L360.73 391.47 355.69 378.48 344.69 391.82 344.41 392.25C337.95 391.61 331.42 392.53 325.1 395.02 318.64 397.5 313.32 401.26 308.99 405.88L291.24 403.39 295.5 414.4 299.05 423.41C297.98 427.24 297.35 431.22 297.35 435.34H296.56C270.8 435.34 250 456.13 250 481.9 250 507.67 270.8 528.46 296.56 528.46H519.02 704.36V463.37C704.36 427.39 675.26 398.28 639.27 398.28" fill="#8f227c" opacity="1" stroke-width="2" stroke="none"></path><path d="M595.9 398.35H363.5L360.73 391.47 355.69 378.48 344.69 391.82 344.41 392.25C337.95 391.61 331.42 392.53 325.1 395.02 318.64 397.5 313.32 401.26 308.99 405.88L291.24 403.39 295.5 414.4 299.05 423.41C297.98 427.24 297.35 431.22 297.35 435.34H296.56C270.8 435.34 250 456.13 250 481.9 250 507.67 270.8 528.46 296.56 528.46H519.02 704.36V463.37C704.36 427.39 675.26 398.28 639.27 398.28" stroke="#333333" stroke-width="2" stroke-linecap="round" stroke-linejoin="round" opacity="1" fill="none"></path><path d="M291.38 479.06H400.62C428.02 479.06 450.24 500.92 450.24 528.32V528.53" stroke="#333333" stroke-width="2" stroke-linecap="round" stroke-linejoin="round" opacity="1" fill="none"></path><path d="M581.7 479.06H515.83C488.43 479.06 466.21 500.85 466.21 528.25V528.46" stroke="#333333" stroke-width="2" stroke-linecap="round" stroke-linejoin="round" opacity="1" fill="none"></path><path d="M305.51 410.14C310.26 403.53 316.87 398.21 325.1 394.95 333.4 391.75 342.14 391.25 350.09 393.1" stroke="#333333" stroke-width="2" stroke-linecap="round" stroke-linejoin="round" opacity="1" fill="none"></path><path d="M309.34 465.43C305.51 461.46 302.46 456.56 300.33 451.02 295.57 438.74 296.78 425.61 302.6 414.75" stroke="#333333" stroke-width="2" stroke-linecap="round" stroke-linejoin="round" opacity="1" fill="none"></path><path d="M357.4 395.44C367.97 399.91 376.7 408.29 381.18 419.79 389.76 442.15 378.69 467.28 356.33 476.01 343.13 481.05 329.22 479.34 318 472.46" stroke="#333333" stroke-width="2" stroke-linecap="round" stroke-linejoin="round" opacity="1" fill="none"></path><path d="M346.82 451.38L334.61 445.98 352.36 439.1 346.82 451.38Z" fill="#628c56" stroke="#333333" stroke-width="2" stroke-linecap="round" stroke-linejoin="round" opacity="1"></path><path d="M346.82 451.38L350.09 459.61" stroke="#333333" stroke-width="2" stroke-linecap="round" stroke-linejoin="round" opacity="1" fill="none"></path><path d="M308.84 405.88L291.24 403.39 298.91 423.34" stroke="#333333" stroke-width="2" stroke-linecap="round" stroke-linejoin="round" opacity="1" fill="none"></path><path d="M344.41 392.25L355.69 378.41 363.5 398.35" stroke="#333333" stroke-width="2" stroke-linecap="round" stroke-linejoin="round" opacity="1" fill="none"></path><path d="M608.18 398.35H627.91" stroke="#333333" stroke-width="2" stroke-linecap="round" stroke-linejoin="round" opacity="1" fill="none"></path><path d="M581.7 479.06C546.64 479.06 518.31 450.74 518.31 415.67" stroke="#333333" stroke-width="2" stroke-linecap="round" stroke-linejoin="round" opacity="1" fill="none"></path><path d="M456.7 479.06H390.83" stroke="#333333" stroke-width="2" stroke-linecap="round" stroke-linejoin="round" opacity="1" fill="none"></path><path d="M424.47 455.49C423.41 452.3 422.91 448.75 422.91 445.2" stroke="#333333" stroke-width="2" stroke-linecap="round" stroke-linejoin="round" opacity="1" fill="none"></path><path d="M456.7 479.06C444.14 479.06 433.28 472.32 427.46 462.24" stroke="#333333" stroke-width="2" stroke-linecap="round" stroke-linejoin="round" opacity="1" fill="none"></path><path d="M704.36 461.95C716 461.95 725.51 471.47 725.51 483.11" stroke="#333333" stroke-width="2" stroke-linecap="round" stroke-linejoin="round" opacity="1" fill="none"></path><path d="M725.37 490.13V609.31" stroke="#333333" stroke-width="2" stroke-linecap="round" stroke-linejoin="round" opacity="1" fill="none"></path><path d="M750 609.31C750 616.06 744.46 621.59 737.72 621.59 730.98 621.59 725.44 616.06 725.44 609.31" stroke="#333333" stroke-width="2" stroke-linecap="round" stroke-linejoin="round" opacity="1" fill="none"></path></g></svg>