
<svg class="animated" id="freepik_stories-cat-throwing-a-vase" xmlns="http://www.w3.org/2000/svg" viewBox="0 0 750 500" version="1.1" xmlns:xlink="http://www.w3.org/1999/xlink" xmlns:svgjs="http://svgjs.com/svgjs"><g id="freepik--Picture--inject-2" style="transform-origin: 213.02px 185.71px 0px;" class="animable"><polygon points="244.84 182.82 270.73 243.65 254.06 243.65 242.56 211.16 244.84 182.82" style="fill: rgb(38, 50, 56); transform-origin: 256.645px 213.235px 0px;" id="el6i4gske7pp4" class="animable"></polygon><polygon points="165.31 127.77 155.31 243.65 239.95 243.65 249.25 127.77 165.31 127.77" style="fill: rgb(69, 90, 100); transform-origin: 202.28px 185.71px 0px;" id="elxum0bxilp9" class="animable"></polygon><polygon points="173.58 136.96 164.82 234.02 228.35 234.85 236.94 136.4 173.58 136.96" style="fill: rgb(250, 250, 250); transform-origin: 200.88px 185.625px 0px;" id="elnsfkoqn345" class="animable"></polygon><polygon points="187.06 150.4 182.08 217.19 215.97 217.19 221.95 150.4 187.06 150.4" style="fill: rgb(224, 224, 224); transform-origin: 202.015px 183.795px 0px;" id="el46hjn58djqj" class="animable"></polygon><path d="M220.4,160.63c.12.09-9.77,14.16-22.09,31.44s-22.39,31.21-22.51,31.13,9.77-14.15,22.09-31.44S220.28,160.55,220.4,160.63Z" style="fill: rgb(38, 50, 56); transform-origin: 198.1px 191.915px 0px;" id="elmdo6623969" class="animable"></path><path d="M228,141.86a2.62,2.62,0,0,1-.34.47l-1,1.27-3.86,4.63c-3.26,3.92-7.7,9.38-12.43,15.54s-8.88,11.86-11.83,16l-3.48,4.92-1,1.33a2.52,2.52,0,0,1-.37.45A3.35,3.35,0,0,1,194,186l.88-1.38c.77-1.2,1.91-2.92,3.35-5,2.88-4.21,7-9.94,11.71-16.12s9.24-11.59,12.57-15.46c1.66-1.93,3-3.47,4-4.53l1.11-1.2A2.34,2.34,0,0,1,228,141.86Z" style="fill: rgb(38, 50, 56); transform-origin: 210.845px 164.165px 0px;" id="elwa0pa0jrrys" class="animable"></path></g><g id="freepik--Books--inject-2" style="transform-origin: 192.155px 300.597px 0px;" class="animable"><path d="M261.57,302H109.72c-2.56-9.45-2.81-18.3,0-26.36H261.57A34.45,34.45,0,0,1,261.57,302Z" style="fill: rgb(69, 90, 100); transform-origin: 185.948px 288.82px 0px;" id="elqzjkfm5twdg" class="animable"></path><path d="M154.72,283.89l-1.65,8.27h-.6l1.41-7-4.57,5.93H149l-2.34-6-1.41,7.11h-.6l1.66-8.27h.5l2.46,6.39,4.91-6.39Z" style="fill: rgb(245, 245, 245); transform-origin: 149.685px 288.045px 0px;" id="el8w1pvczr8lv" class="animable"></path><path d="M162.48,286l-1.23,6.17h-.57l.24-1.21a3.18,3.18,0,0,1-2.6,1.26,2.45,2.45,0,0,1-2.66-2.57,3.49,3.49,0,0,1,3.49-3.7,2.27,2.27,0,0,1,2.43,1.59l.31-1.54Zm-1.15,2.55a1.93,1.93,0,0,0-2.18-2.06,2.93,2.93,0,0,0-2.9,3.13,1.94,1.94,0,0,0,2.19,2.06A2.92,2.92,0,0,0,161.33,288.54Z" style="fill: rgb(245, 245, 245); transform-origin: 159.067px 289.082px 0px;" id="el0bt0hj9wh73" class="animable"></path><path d="M164.81,290.37a1.85,1.85,0,0,0-.05.44c0,.58.31.89.94.89a1.61,1.61,0,0,0,1-.35l.18.44a2.13,2.13,0,0,1-1.33.42,1.25,1.25,0,0,1-1.4-1.32,2.63,2.63,0,0,1,0-.47l.79-3.92h-1.14l.09-.51h1.15l.27-1.35H166l-.27,1.35h2l-.09.51h-2Z" style="fill: rgb(245, 245, 245); transform-origin: 165.765px 288.43px 0px;" id="elir9h7u4ksw" class="animable"></path><path d="M174.74,287.92a3.25,3.25,0,0,1-.07.67l-.71,3.57h-.59l.71-3.57a2.46,2.46,0,0,0,.06-.59c0-1-.58-1.52-1.74-1.52a2.6,2.6,0,0,0-2.7,2.32l-.68,3.36h-.59l1.75-8.77h.59l-.74,3.75a3,3,0,0,1,2.53-1.2A1.91,1.91,0,0,1,174.74,287.92Z" style="fill: rgb(245, 245, 245); transform-origin: 171.586px 287.775px 0px;" id="elet0hbjdgvp" class="animable"></path><path d="M176.9,289.2c0,.13,0,.26,0,.39,0,1.34.78,2.08,2.28,2.08a2.84,2.84,0,0,0,2.11-.82l.27.41a3.32,3.32,0,0,1-2.43.95,2.49,2.49,0,0,1-2.81-2.59,3.44,3.44,0,0,1,3.37-3.68,2.41,2.41,0,0,1,2.62,2.58,4.73,4.73,0,0,1-.07.68Zm.07-.46h4.75c0-.1,0-.2,0-.3a1.89,1.89,0,0,0-2.08-2A2.73,2.73,0,0,0,177,288.74Z" style="fill: rgb(245, 245, 245); transform-origin: 179.314px 289.081px 0px;" id="el2f9z586lfxb" class="animable"></path><path d="M194.39,287.89a3.5,3.5,0,0,1-.08.7l-.72,3.57H193l.72-3.57a2.54,2.54,0,0,0,.06-.6c0-.95-.55-1.51-1.66-1.51a2.48,2.48,0,0,0-2.59,2.18l-.71,3.5h-.59l.72-3.57a2.54,2.54,0,0,0,.06-.6c0-.95-.56-1.51-1.67-1.51a2.57,2.57,0,0,0-2.62,2.32l-.67,3.36h-.59l1.23-6.17h.58l-.24,1.16a2.86,2.86,0,0,1,2.47-1.21,1.87,1.87,0,0,1,2.05,1.39,3.08,3.08,0,0,1,2.69-1.39C193.64,285.94,194.39,286.69,194.39,287.89Z" style="fill: rgb(245, 245, 245); transform-origin: 188.925px 289.042px 0px;" id="elnfiosc7dgms" class="animable"></path><path d="M202.76,286l-1.23,6.17H201l.24-1.21a3.18,3.18,0,0,1-2.6,1.26,2.45,2.45,0,0,1-2.66-2.57,3.49,3.49,0,0,1,3.49-3.7,2.27,2.27,0,0,1,2.43,1.59l.31-1.54Zm-1.15,2.55a1.93,1.93,0,0,0-2.18-2.06,2.93,2.93,0,0,0-2.9,3.13,1.94,1.94,0,0,0,2.19,2.06A2.92,2.92,0,0,0,201.61,288.54Z" style="fill: rgb(245, 245, 245); transform-origin: 199.367px 289.082px 0px;" id="el6og4kf7t4oj" class="animable"></path><path d="M205.09,290.37a1.85,1.85,0,0,0-.05.44c0,.58.31.89.94.89a1.59,1.59,0,0,0,1-.35l.18.44a2.13,2.13,0,0,1-1.33.42,1.25,1.25,0,0,1-1.4-1.32,2.63,2.63,0,0,1,0-.47l.8-3.92h-1.15l.09-.51h1.15l.27-1.35h.59L206,286h2l-.09.51h-2Z" style="fill: rgb(245, 245, 245); transform-origin: 206.04px 288.43px 0px;" id="elg9prv2kljw" class="animable"></path><path d="M209.94,286h.59l-1.23,6.17h-.59Zm.2-1.94a.52.52,0,0,1,.52-.52.45.45,0,0,1,.46.44.51.51,0,0,1-.53.52A.44.44,0,0,1,210.14,284.05Z" style="fill: rgb(245, 245, 245); transform-origin: 209.915px 287.855px 0px;" id="elr2yhqa22nk" class="animable"></path><path d="M211.7,289.64a3.5,3.5,0,0,1,3.55-3.7,2.47,2.47,0,0,1,2.33,1.16l-.48.3a2,2,0,0,0-1.89-.92,2.93,2.93,0,0,0-2.92,3.13,2,2,0,0,0,2.23,2.06,2.61,2.61,0,0,0,2-.9l.41.34a3.18,3.18,0,0,1-2.5,1.1A2.5,2.5,0,0,1,211.7,289.64Z" style="fill: rgb(245, 245, 245); transform-origin: 214.637px 289.075px 0px;" id="elsdux0y1ryyq" class="animable"></path><path d="M225,286l-1.23,6.17h-.57l.24-1.21a3.18,3.18,0,0,1-2.6,1.26,2.44,2.44,0,0,1-2.66-2.57,3.49,3.49,0,0,1,3.49-3.7,2.29,2.29,0,0,1,2.43,1.59l.31-1.54Zm-1.15,2.55a1.93,1.93,0,0,0-2.18-2.06,2.93,2.93,0,0,0-2.9,3.13,1.94,1.94,0,0,0,2.19,2.06A2.92,2.92,0,0,0,223.82,288.54Z" style="fill: rgb(245, 245, 245); transform-origin: 221.587px 289.084px 0px;" id="el0mxwlx85mm1p" class="animable"></path><path d="M228,283.39h.59l-1.75,8.77h-.59Z" style="fill: rgb(245, 245, 245); transform-origin: 227.42px 287.775px 0px;" id="elgggmlkuw8f" class="animable"></path><path d="M116.08,286.44l8.27,1.65v.61l-7.73-1.55v2l-.54-.11Z" style="fill: rgb(245, 245, 245); transform-origin: 120.215px 287.795px 0px;" id="el1zcxqss38fo" class="animable"></path><path d="M135.56,275.63c.19.06-1.67,6-4.14,13.33s-4.62,13.16-4.81,13.1,1.67-6,4.14-13.33S135.38,275.57,135.56,275.63Z" style="fill: rgb(255, 255, 255); transform-origin: 131.085px 288.845px 0px;" id="elfapjivanbwk" class="animable"></path><path d="M141.75,275.63c.18.06-1.67,6-4.14,13.33s-4.63,13.16-4.81,13.1,1.67-6,4.14-13.33S141.57,275.57,141.75,275.63Z" style="fill: rgb(255, 255, 255); transform-origin: 137.275px 288.845px 0px;" id="el1m3yp5qa43g" class="animable"></path><path d="M243.18,275.63c.18.06-1.67,6-4.14,13.33s-4.63,13.16-4.81,13.1,1.67-6,4.14-13.33S243,275.57,243.18,275.63Z" style="fill: rgb(255, 255, 255); transform-origin: 238.705px 288.845px 0px;" id="elbl52239pfbc" class="animable"></path><path d="M249.37,275.63c.18.06-1.67,6-4.15,13.33s-4.62,13.16-4.8,13.1,1.67-6,4.14-13.33S249.18,275.57,249.37,275.63Z" style="fill: rgb(255, 255, 255); transform-origin: 244.895px 288.845px 0px;" id="elh5q3qbut1d4" class="animable"></path><path d="M287.69,325.7H95.85c-3.23-8.5-3.56-16.47,0-23.72H287.69A22.86,22.86,0,0,1,287.69,325.7Z" style="fill: rgb(194, 36, 203); transform-origin: 192.155px 313.84px 0px;" id="ell7ps3k7qi7g" class="animable"></path><path d="M160.39,308.62h2v7.15h4.42v1.66h-6.46Z" style="fill: rgb(245, 245, 245); transform-origin: 163.58px 313.025px 0px;" id="ely4m2h22g8jf" class="animable"></path><path d="M173.92,313.57v3.86h-1.84v-.84a2.23,2.23,0,0,1-2.06.94c-1.59,0-2.53-.88-2.53-2s.84-2,2.91-2H172c0-.84-.51-1.33-1.56-1.33a3.25,3.25,0,0,0-2,.63l-.71-1.37a5.19,5.19,0,0,1,2.92-.82C172.72,310.56,173.92,311.52,173.92,313.57Zm-2,1.72v-.69h-1.35c-.92,0-1.21.34-1.21.79s.42.82,1.11.82A1.45,1.45,0,0,0,172,315.29Z" style="fill: rgb(245, 245, 245); transform-origin: 170.705px 314.089px 0px;" id="eljytpumf8rj" class="animable"></path><path d="M182.61,313.56v3.87h-2v-3.57c0-1.1-.5-1.6-1.37-1.6s-1.62.58-1.62,1.82v3.35h-2v-6.77h1.88v.79a3,3,0,0,1,2.24-.89C181.41,310.56,182.61,311.49,182.61,313.56Z" style="fill: rgb(245, 245, 245); transform-origin: 179.115px 313.994px 0px;" id="elh5b3v1eont" class="animable"></path><path d="M191.45,310.66v5.64c0,2.51-1.36,3.67-3.8,3.67a5.53,5.53,0,0,1-3.32-.93l.78-1.41a4,4,0,0,0,2.39.77c1.38,0,2-.63,2-1.85v-.29a2.74,2.74,0,0,1-2.13.84,3.27,3.27,0,1,1,0-6.54,2.71,2.71,0,0,1,2.24,1v-.87Zm-1.94,3.17a1.78,1.78,0,1,0-1.77,1.66A1.64,1.64,0,0,0,189.51,313.83Z" style="fill: rgb(245, 245, 245); transform-origin: 187.775px 315.266px 0px;" id="elcgxue3cpix" class="animable"></path><path d="M200.09,310.66v6.77h-1.86v-.81a2.9,2.9,0,0,1-5-2.13v-3.83h2v3.54c0,1.13.5,1.63,1.37,1.63s1.56-.58,1.56-1.82v-3.35Z" style="fill: rgb(245, 245, 245); transform-origin: 196.658px 314.092px 0px;" id="el8pexzcycsnq" class="animable"></path><path d="M207.91,313.57v3.86h-1.84v-.84a2.24,2.24,0,0,1-2.06.94c-1.59,0-2.53-.88-2.53-2s.84-2,2.9-2h1.56c0-.84-.5-1.33-1.56-1.33a3.27,3.27,0,0,0-1.95.63l-.7-1.37a5.19,5.19,0,0,1,2.92-.82C206.71,310.56,207.91,311.52,207.91,313.57Zm-2,1.72v-.69H204.6c-.92,0-1.21.34-1.21.79s.41.82,1.11.82A1.43,1.43,0,0,0,205.94,315.29Z" style="fill: rgb(245, 245, 245); transform-origin: 204.695px 314.089px 0px;" id="elpb9e6lvjbq" class="animable"></path><path d="M216.74,310.66v5.64c0,2.51-1.36,3.67-3.8,3.67a5.55,5.55,0,0,1-3.32-.93l.78-1.41a4,4,0,0,0,2.39.77c1.38,0,2-.63,2-1.85v-.29a2.78,2.78,0,0,1-2.14.84,3.27,3.27,0,1,1,0-6.54,2.71,2.71,0,0,1,2.24,1v-.87Zm-1.94,3.17a1.64,1.64,0,0,0-1.77-1.66,1.66,1.66,0,1,0,0,3.32A1.64,1.64,0,0,0,214.8,313.83Z" style="fill: rgb(245, 245, 245); transform-origin: 213.06px 315.266px 0px;" id="elqfcv4bl5a48" class="animable"></path><path d="M225.16,314.6H220A1.8,1.8,0,0,0,222,316a2.29,2.29,0,0,0,1.7-.66l1.05,1.14a3.58,3.58,0,0,1-2.8,1.09c-2.34,0-3.86-1.47-3.86-3.48a3.45,3.45,0,0,1,3.61-3.49,3.35,3.35,0,0,1,3.53,3.51C225.2,314.22,225.17,314.44,225.16,314.6ZM220,313.45h3.34a1.69,1.69,0,0,0-3.34,0Z" style="fill: rgb(245, 245, 245); transform-origin: 221.662px 314.086px 0px;" id="elqlr884xa5vl" class="animable"></path><path d="M108.83,313.54h8.81v2h-7.18v1.76h-1.63Z" style="fill: rgb(245, 245, 245); transform-origin: 113.235px 315.42px 0px;" id="elgzn7hgz7agp" class="animable"></path><polygon points="122.11 301.98 131.2 325.7 143.14 325.7 135.56 301.98 122.11 301.98" style="fill: rgb(255, 255, 255); transform-origin: 132.625px 313.84px 0px;" id="elhwjr3t1w8ba" class="animable"></polygon><polygon points="239.9 301.98 248.99 325.7 260.93 325.7 253.35 301.98 239.9 301.98" style="fill: rgb(38, 50, 56); transform-origin: 250.415px 313.84px 0px;" id="elwob2qhz0sma" class="animable"></polygon><path d="M103.06,325.14s-18.2,13.86-.77,32.18a1.57,1.57,0,0,0,1.16.48l159-.92s13.58-15.23,2.31-32.77Z" style="fill: rgb(38, 50, 56); transform-origin: 181.986px 340.955px 0px;" id="elnorutrlzmno" class="animable"></path><path d="M110.23,358.11a.85.85,0,0,1-.3,0,3.92,3.92,0,0,1-.82-.2,6.52,6.52,0,0,1-2.67-1.76,6.4,6.4,0,0,1-1.72-4.54,6.84,6.84,0,0,1,2.94-5.37l.07.49a5.62,5.62,0,0,1-4-5,5.56,5.56,0,0,1,4.67-5.6l-.09.5a6.41,6.41,0,0,1-3.15-4.77,6,6,0,0,1,1.22-4.33,6.05,6.05,0,0,1,2.3-1.85,4.48,4.48,0,0,1,.74-.26.8.8,0,0,1,.27,0s-.34.14-.93.46a6.4,6.4,0,0,0-2.12,1.88,5.74,5.74,0,0,0-1,4.09,6,6,0,0,0,3,4.35l.72.39-.81.11a5,5,0,0,0-4.17,5,5.1,5.1,0,0,0,3.53,4.52l.57.16-.49.33a6.4,6.4,0,0,0-2.77,4.93,6.06,6.06,0,0,0,1.5,4.29,6.86,6.86,0,0,0,2.48,1.82C109.84,358,110.24,358.07,110.23,358.11Z" style="fill: rgb(224, 224, 224); transform-origin: 106.98px 341.766px 0px;" id="elc5kjbyqccjl" class="animable"></path><path d="M110.27,352.65s-.13,0-.29-.13a1.14,1.14,0,0,1-.23-.88h0v0a2,2,0,0,1,1-1.09,4.74,4.74,0,0,1,1.89-.43,13.59,13.59,0,0,1,2.27.07q.6.06,1.23.18a3.1,3.1,0,0,1,1.3.5,1.42,1.42,0,0,1,.57,1,1.16,1.16,0,0,1-.49,1,3.61,3.61,0,0,1-1.76.54,12.18,12.18,0,0,1-2.94,0,5.06,5.06,0,0,1-2.58-.79c0-.1,1,.31,2.61.39a13.83,13.83,0,0,0,2.84-.17,3.18,3.18,0,0,0,1.48-.45.66.66,0,0,0-.08-1.11,2.54,2.54,0,0,0-1.07-.4c-.4-.08-.79-.15-1.18-.2a16.89,16.89,0,0,0-2.19-.12c-1.33,0-2.4.46-2.67,1.13v0a1.1,1.1,0,0,0,.07.74C110.19,352.57,110.28,352.62,110.27,352.65Z" style="fill: rgb(224, 224, 224); transform-origin: 113.874px 351.8px 0px;" id="el5vrx4u27ac3" class="animable"></path><path d="M109.84,341.91s-.13,0-.29-.13a1.14,1.14,0,0,1-.23-.88h0v0a2,2,0,0,1,1-1.08,4.74,4.74,0,0,1,1.89-.43,13.47,13.47,0,0,1,2.26.07q.61.06,1.23.18a3.08,3.08,0,0,1,1.31.5,1.42,1.42,0,0,1,.57,1,1.16,1.16,0,0,1-.49,1,3.61,3.61,0,0,1-1.76.54,12.18,12.18,0,0,1-2.94,0,5.18,5.18,0,0,1-2.58-.79c0-.1,1,.31,2.61.39a14.57,14.57,0,0,0,2.84-.17,3.18,3.18,0,0,0,1.48-.45.67.67,0,0,0-.08-1.12,2.67,2.67,0,0,0-1.07-.39c-.4-.08-.79-.15-1.18-.2a16.89,16.89,0,0,0-2.19-.12c-1.33,0-2.4.46-2.67,1.13v0a1,1,0,0,0,.07.74C109.76,341.83,109.85,341.88,109.84,341.91Z" style="fill: rgb(224, 224, 224); transform-origin: 113.444px 341.07px 0px;" id="ely6jhkvj9c9" class="animable"></path><path d="M110.06,331.51s-.12,0-.28-.12a1.1,1.1,0,0,1-.23-.88h0v0a2.06,2.06,0,0,1,1-1.08,4.78,4.78,0,0,1,1.89-.43,13.51,13.51,0,0,1,2.27.06c.4.05.81.11,1.23.19a3.18,3.18,0,0,1,1.31.5,1.41,1.41,0,0,1,.56,1,1.18,1.18,0,0,1-.49,1,3.52,3.52,0,0,1-1.75.53,12.85,12.85,0,0,1-3,.05,5.22,5.22,0,0,1-2.58-.8,26,26,0,0,0,2.61.4,15.4,15.4,0,0,0,2.84-.17,3.22,3.22,0,0,0,1.49-.45.67.67,0,0,0-.09-1.12,2.57,2.57,0,0,0-1.06-.39c-.4-.08-.8-.15-1.19-.2a15.23,15.23,0,0,0-2.18-.12c-1.34,0-2.4.46-2.67,1.13v0a1.05,1.05,0,0,0,.07.74C110,331.44,110.08,331.49,110.06,331.51Z" style="fill: rgb(224, 224, 224); transform-origin: 113.672px 330.686px 0px;" id="elxanrdmqn8e8" class="animable"></path><path d="M253,324.55s.1,0,.29,0a4.75,4.75,0,0,1,.83.21,6.48,6.48,0,0,1,2.67,1.75,6.41,6.41,0,0,1,1.72,4.54,6.83,6.83,0,0,1-2.94,5.37l-.07-.49a5.65,5.65,0,0,1,4,5,5.57,5.57,0,0,1-4.68,5.6l.09-.5a6.37,6.37,0,0,1,3.16,4.76,6,6,0,0,1-1.22,4.34,6.08,6.08,0,0,1-2.3,1.84,4.22,4.22,0,0,1-.75.26c-.17,0-.26.06-.26,0s.34-.14.93-.46a6.18,6.18,0,0,0,2.11-1.88,5.71,5.71,0,0,0,1-4.08,6,6,0,0,0-3-4.35l-.72-.4.81-.11a5,5,0,0,0,4.17-5,5.09,5.09,0,0,0-3.53-4.51l-.58-.16.5-.33a6.4,6.4,0,0,0,2.77-4.94,6.08,6.08,0,0,0-1.51-4.29,6.83,6.83,0,0,0-2.47-1.81C253.4,324.66,253,324.59,253,324.55Z" style="fill: rgb(224, 224, 224); transform-origin: 256.25px 340.903px 0px;" id="elsc2i6225dvc" class="animable"></path><path d="M253,330s.12,0,.29.13a1.11,1.11,0,0,1,.23.87h0v0a2,2,0,0,1-1,1.08,4.78,4.78,0,0,1-1.89.44,14.75,14.75,0,0,1-2.27-.07c-.4,0-.81-.11-1.23-.19a3.07,3.07,0,0,1-1.3-.49,1.46,1.46,0,0,1-.57-1,1.19,1.19,0,0,1,.49-1,3.67,3.67,0,0,1,1.76-.53,12.77,12.77,0,0,1,2.94-.05,5.17,5.17,0,0,1,2.58.8c0,.09-1-.31-2.61-.39a14.5,14.5,0,0,0-2.84.16,3.31,3.31,0,0,0-1.48.46c-.4.27-.34.79.08,1.11a2.63,2.63,0,0,0,1.06.39c.41.09.8.15,1.19.2a15.36,15.36,0,0,0,2.19.13c1.33,0,2.39-.47,2.67-1.13v0a1.07,1.07,0,0,0-.08-.73C253.05,330.09,253,330,253,330Z" style="fill: rgb(224, 224, 224); transform-origin: 249.397px 330.832px 0px;" id="el1rthva9w7fy" class="animable"></path><path d="M253.4,340.75s.13,0,.29.13a1.11,1.11,0,0,1,.23.87h0v0a2,2,0,0,1-1,1.08,4.74,4.74,0,0,1-1.89.44,14.75,14.75,0,0,1-2.27-.07c-.4,0-.81-.11-1.23-.19a3.07,3.07,0,0,1-1.3-.49,1.46,1.46,0,0,1-.57-1,1.19,1.19,0,0,1,.49-1,3.7,3.7,0,0,1,1.76-.53,12.77,12.77,0,0,1,2.94-.05,5.17,5.17,0,0,1,2.58.8c0,.09-1-.31-2.61-.39a14.5,14.5,0,0,0-2.84.16,3.31,3.31,0,0,0-1.48.46c-.4.27-.34.79.08,1.11a2.53,2.53,0,0,0,1.07.39c.4.09.79.15,1.18.2a15.36,15.36,0,0,0,2.19.13c1.33,0,2.4-.47,2.67-1.13v0a1,1,0,0,0-.08-.73C253.48,340.83,253.39,340.78,253.4,340.75Z" style="fill: rgb(224, 224, 224); transform-origin: 249.797px 341.582px 0px;" id="els8v69ab9w79" class="animable"></path><path d="M253.17,351.14s.13,0,.29.13a1.09,1.09,0,0,1,.23.87h0v0a1.94,1.94,0,0,1-1,1.08,4.82,4.82,0,0,1-1.89.44,13.56,13.56,0,0,1-2.27-.07,10.79,10.79,0,0,1-1.23-.19,3,3,0,0,1-1.31-.49,1.44,1.44,0,0,1-.57-1,1.19,1.19,0,0,1,.5-1,3.54,3.54,0,0,1,1.75-.54,12.26,12.26,0,0,1,2.95,0,5,5,0,0,1,2.57.79c0,.09-1-.31-2.61-.39a13.87,13.87,0,0,0-2.84.17,3.22,3.22,0,0,0-1.48.45.66.66,0,0,0,.08,1.11,2.68,2.68,0,0,0,1.07.4c.4.08.8.14,1.18.19a15.44,15.44,0,0,0,2.19.13c1.34,0,2.4-.46,2.67-1.13v0a1,1,0,0,0-.07-.74C253.26,351.22,253.16,351.17,253.17,351.14Z" style="fill: rgb(224, 224, 224); transform-origin: 249.562px 351.98px 0px;" id="eleddx54rh1l8" class="animable"></path><path d="M227.47,339.61c0,.16-19.79.29-44.2.29s-44.21-.13-44.21-.29,19.79-.29,44.21-.29S227.47,339.45,227.47,339.61Z" style="fill: rgb(224, 224, 224); transform-origin: 183.265px 339.61px 0px;" id="elh85wwj3slqe" class="animable"></path><path d="M202.75,345.36c0,.16-9.31.29-20.79.29s-20.78-.13-20.78-.29,9.3-.29,20.78-.29S202.75,345.2,202.75,345.36Z" style="fill: rgb(224, 224, 224); transform-origin: 181.965px 345.36px 0px;" id="elrm2xupvajt" class="animable"></path><path d="M270.26,246.05v28H216v-28Z" style="fill: rgb(235, 235, 235); transform-origin: 243.13px 260.05px 0px;" id="el7pgk4g23t0i" class="animable"></path><path d="M95.15,260.32l0,.75a16.06,16.06,0,0,0,16.13,15H272.79v-2H234.45a14,14,0,0,1-14-14h0a14,14,0,0,1,14-14h38.34v-3l-161.53.54A16.15,16.15,0,0,0,95.15,260.32Z" style="fill: rgb(194, 36, 203); transform-origin: 183.965px 259.57px 0px;" id="elk6tu6nsdeg" class="animable"></path><path d="M270.26,260.44c0,.16-11.15.28-24.9.28s-24.9-.12-24.9-.28,11.15-.29,24.9-.29S270.26,260.28,270.26,260.44Z" style="fill: rgb(224, 224, 224); transform-origin: 245.36px 260.435px 0px;" id="elkfavonbd6o" class="animable"></path><path d="M269.47,266.75c0,.16-10.55.29-23.56.29s-23.56-.13-23.56-.29,10.55-.29,23.56-.29S269.47,266.59,269.47,266.75Z" style="fill: rgb(224, 224, 224); transform-origin: 245.91px 266.75px 0px;" id="elaxkudtn3eod" class="animable"></path><path d="M270.26,272.53c0,.15-9.49.28-21.18.28s-21.19-.13-21.19-.28,9.49-.29,21.19-.29S270.26,272.37,270.26,272.53Z" style="fill: rgb(224, 224, 224); transform-origin: 249.075px 272.525px 0px;" id="el4c4fnnoc6u" class="animable"></path><path d="M270.26,254.76c0,.16-10.92.29-24.39.29s-24.39-.13-24.39-.29,10.92-.28,24.39-.28S270.26,254.61,270.26,254.76Z" style="fill: rgb(224, 224, 224); transform-origin: 245.87px 254.765px 0px;" id="elo3ynnz3cm2m" class="animable"></path><path d="M269.47,249.09c0,.16-9.72.29-21.7.29s-21.71-.13-21.71-.29,9.71-.29,21.71-.29S269.47,248.93,269.47,249.09Z" style="fill: rgb(224, 224, 224); transform-origin: 247.765px 249.09px 0px;" id="el9zlxdglpgpv" class="animable"></path><g id="elci1uh9063mn"><g style="opacity: 0.3; transform-origin: 183.965px 259.57px 0px;" class="animable"><path d="M95.15,260.32l0,.75a16.06,16.06,0,0,0,16.13,15H272.79v-2H234.45a14,14,0,0,1-14-14h0a14,14,0,0,1,14-14h38.34v-3l-161.53.54A16.15,16.15,0,0,0,95.15,260.32Z" id="elpaa8fin7ze" style="transform-origin: 183.965px 259.57px 0px;" class="animable"></path></g></g><path d="M114.71,244.09a35,35,0,0,0-3.43,4.08,20.75,20.75,0,0,0,.28,24,35.43,35.43,0,0,0,3.53,4,5.63,5.63,0,0,1-1.16-.86,18.37,18.37,0,0,1-2.7-2.89,20.44,20.44,0,0,1-.29-24.49,18.7,18.7,0,0,1,2.63-3A6.25,6.25,0,0,1,114.71,244.09Z" style="fill: rgb(255, 255, 255); transform-origin: 111.05px 260.13px 0px;" id="el7ix07e92tyj" class="animable"></path><path d="M109.25,243.49a35,35,0,0,0-3.43,4.08,20.75,20.75,0,0,0,.28,24,35.43,35.43,0,0,0,3.53,4,5.63,5.63,0,0,1-1.16-.86,18.37,18.37,0,0,1-2.7-2.89,20.44,20.44,0,0,1-.29-24.49,18.7,18.7,0,0,1,2.63-3A6.25,6.25,0,0,1,109.25,243.49Z" style="fill: rgb(255, 255, 255); transform-origin: 105.59px 259.53px 0px;" id="elqkta4oalkle" class="animable"></path><path d="M219,244.09a35,35,0,0,0-3.43,4.08,20.75,20.75,0,0,0,.28,24,35.43,35.43,0,0,0,3.53,4,5.63,5.63,0,0,1-1.16-.86,18.37,18.37,0,0,1-2.7-2.89,20.44,20.44,0,0,1-.29-24.49,18.7,18.7,0,0,1,2.63-3A6.25,6.25,0,0,1,219,244.09Z" style="fill: rgb(255, 255, 255); transform-origin: 215.34px 260.13px 0px;" id="eljbmsnfzvvw" class="animable"></path><path d="M213.51,243.49a35,35,0,0,0-3.43,4.08,20.75,20.75,0,0,0,.28,24,35.43,35.43,0,0,0,3.53,4,5.63,5.63,0,0,1-1.16-.86,18.37,18.37,0,0,1-2.7-2.89,20.44,20.44,0,0,1-.29-24.49,18.7,18.7,0,0,1,2.63-3A6.25,6.25,0,0,1,213.51,243.49Z" style="fill: rgb(255, 255, 255); transform-origin: 209.85px 259.53px 0px;" id="el775dbvif25n" class="animable"></path><path d="M133.09,264.26l-.15-11.39a8.34,8.34,0,0,0-.41-2.94,2.75,2.75,0,0,0-2.16-1.82c-1.43-.63-3.65.56-4.65,2.2a10.92,10.92,0,0,0-1.12,5.58,81.81,81.81,0,0,0,.44,9A10.34,10.34,0,0,0,126.1,269a3.44,3.44,0,0,0,6.52-.55A11.4,11.4,0,0,0,133.09,264.26Z" style="fill: rgb(255, 255, 255); transform-origin: 128.849px 259.522px 0px;" id="elsdmh97nofn8" class="animable"></path><path d="M195.8,261c0,.15-11.67.28-26.07.28s-26.07-.13-26.07-.28,11.67-.29,26.07-.29S195.8,260.83,195.8,261Z" style="fill: rgb(255, 255, 255); transform-origin: 169.73px 260.995px 0px;" id="elywf6pftts5a" class="animable"></path></g><g id="freepik--Vase--inject-2" style="transform-origin: 619.18px 221.074px 0px;" class="animable animator-active"><path d="M620.6,237.55,637.1,223l-2-.7-14.92-5.23-5.64-2-14.92-5.23-2-.7,3.83,21.65s-49.57,55.84-42.22,120.49L566,353.7l5.64,2,6.75,2.36C624.47,312.12,620.6,237.55,620.6,237.55Z" style="fill: rgb(224, 224, 224); transform-origin: 597.793px 283.6px 0px;" id="elrk9ri6q1nx" class="animable"></path><path d="M620.6,237.55s0,.21,0,.63.05,1,.06,1.88c0,1.65,0,4.1,0,7.28a206.48,206.48,0,0,1-2.64,27.1,187.22,187.22,0,0,1-11,39.94c-6,14.65-15,30.31-28.45,43.84l-.11.11-.15-.05-19.15-6.7-.15-.06,0-.16a125.52,125.52,0,0,1,.79-32.71,148.51,148.51,0,0,1,6.42-25.91,182.13,182.13,0,0,1,9.9-23.48,208.25,208.25,0,0,1,12-20.76,179.68,179.68,0,0,1,13.21-17.81l0,.19q-2-11.55-3.8-21.66l-.06-.33.31.11,39.46,13.91.2.07-.16.13-12.3,10.75-3.19,2.76c-.71.62-1.09.93-1.09.93s.34-.33,1-1,1.75-1.57,3.13-2.79L637,222.93l0,.21-39.51-13.77.26-.22c1.2,6.75,2.49,13.95,3.86,21.65v.1l-.07.08a182.51,182.51,0,0,0-13.15,17.78,209.45,209.45,0,0,0-11.93,20.73,181.16,181.16,0,0,0-9.86,23.42,147.47,147.47,0,0,0-6.39,25.82,124.89,124.89,0,0,0-.8,32.57l-.17-.21,19.15,6.72-.26.06c13.41-13.46,22.43-29.05,28.4-43.65a187.47,187.47,0,0,0,11.12-39.83,212.58,212.58,0,0,0,2.78-27.06c.11-3.17.13-5.62.12-7.27,0-.82,0-1.44,0-1.88S620.6,237.55,620.6,237.55Z" style="fill: rgb(38, 50, 56); transform-origin: 597.869px 283.61px 0px;" id="ell8bhz9dutec" class="animable"></path><path d="M606.7,229.43a41.12,41.12,0,0,1-1.51-6.28,39.91,39.91,0,0,1-1-6.38,41.91,41.91,0,0,1,1.51,6.28A40.24,40.24,0,0,1,606.7,229.43Z" style="fill: rgb(255, 255, 255); transform-origin: 605.445px 223.1px 0px;" id="elgfyxys15z2" class="animable"></path><path d="M578.19,355.7c17.1-18.91,24.95-38,33.28-65.22.91-3,2.12-5.74,2.84-8.69A1.3,1.3,0,0,0,612,280.7c-2.33,3-4.63,6.2-7.92,7.84-4.68,2.33-10,3.76-13.71,7.41-2,1.92-3.46,4.41-5.86,5.75-3.28,1.84-7.31,1.05-11.06.93s-8.28,1.1-9.33,4.71c0,0-5.25,27.4-2.88,42.14Z" style="fill: rgb(235, 235, 235); transform-origin: 587.489px 317.932px 0px;" id="el3wo9l3a0z2s" class="animable"></path><path d="M629.63,192.89a27.92,27.92,0,0,1,27.1-5.19,26.46,26.46,0,0,1-28.21,5.6" style="fill: rgb(69, 90, 100); transform-origin: 642.625px 190.695px 0px;" id="el3s3qht3gxfm" class="animable"></path><path d="M642,168.61a28,28,0,0,1,2.47-27.49,26.5,26.5,0,0,1-2.38,28.67" style="fill: rgb(69, 90, 100); transform-origin: 643.55px 155.455px 0px;" id="elxb3fdh8otrb" class="animable"></path><path d="M629.37,164.58a24.41,24.41,0,0,1-7.85-23,23.15,23.15,0,0,1,8.35,24" style="fill: rgb(69, 90, 100); transform-origin: 625.82px 153.58px 0px;" id="el1qtrs9c88xj" class="animable"></path><path d="M635.45,136.24A17.81,17.81,0,0,1,646.08,122a16.87,16.87,0,0,1-11,14.9" style="fill: rgb(69, 90, 100); transform-origin: 640.58px 129.45px 0px;" id="elz2nmfkok6qa" class="animable"></path><path d="M618.42,215.75a17.81,17.81,0,0,1,14.51-10.22,16.87,16.87,0,0,1-15,10.76" style="fill: rgb(69, 90, 100); transform-origin: 625.43px 210.91px 0px;" id="el6dif8d38hax" class="animable"></path><path d="M638.93,108.73s-.78,10.24-3.24,26.65c-.32,2.05-.66,4.2-1,6.43s-.8,4.55-1.22,6.95c-.82,4.81-1.9,9.91-3,15.29-2.32,10.72-5.18,22.44-8.69,34.6s-7.4,23.59-11.17,33.89c-2,5.13-3.77,10-5.65,14.52-.93,2.25-1.79,4.44-2.69,6.52l-2.59,6c-6.7,15.18-11.52,24.25-11.52,24.25s.05-.15.18-.44l.59-1.26,2.29-4.82,1.67-3.48q.89-1.92,1.9-4.17c1.35-3,3-6.39,4.55-10.22l2.57-6c.88-2.08,1.73-4.28,2.65-6.53,1.87-4.51,3.67-9.39,5.6-14.52,3.75-10.3,7.58-21.73,11.13-33.87S627.66,174.65,630,164c1.11-5.37,2.21-10.46,3-15.26.43-2.4.89-4.71,1.25-6.94l1-6.42c.7-4.09,1.16-7.81,1.62-11.07.23-1.63.44-3.15.63-4.55s.32-2.68.45-3.83c.28-2.28.49-4.07.64-5.3q.12-.89.18-1.38C638.9,108.89,638.93,108.73,638.93,108.73Z" style="fill: rgb(38, 50, 56); transform-origin: 613.545px 196.28px 0px;" id="elbx1x6zt6swa" class="animable"></path><path d="M661.9,141.8a2,2,0,0,1-.2.3l-.63.84-2.44,3.21-1.78,2.32-2,2.8c-1.46,2-3.17,4.28-4.91,6.89l-2.78,4.05c-1,1.42-1.9,2.93-2.91,4.47-2,3.07-4,6.46-6.19,10-4.19,7.14-8.55,15.14-12.7,23.75s-7.61,17-10.56,24.79c-1.41,3.89-2.79,7.58-3.9,11.09-.57,1.75-1.17,3.43-1.66,5.07s-1,3.21-1.42,4.71c-.94,3-1.63,5.74-2.29,8.13-.33,1.2-.63,2.32-.91,3.35s-.48,2-.69,2.84c-.41,1.67-.74,3-1,3.91-.11.43-.2.77-.26,1a2.34,2.34,0,0,1-.11.34,1.85,1.85,0,0,1,.05-.35c.06-.26.13-.6.22-1,.21-.93.5-2.25.88-3.94.19-.86.41-1.81.64-2.85s.56-2.15.87-3.36c.64-2.41,1.3-5.17,2.22-8.17.44-1.5.91-3.08,1.39-4.72s1.07-3.32,1.63-5.08c1.1-3.52,2.47-7.22,3.87-11.13,2.93-7.76,6.42-16.19,10.54-24.84s8.54-16.63,12.75-23.77c2.17-3.54,4.19-6.93,6.25-10,1-1.54,2-3,2.93-4.46l2.82-4c1.76-2.59,3.49-4.84,5-6.85l2.07-2.78c.67-.83,1.27-1.6,1.82-2.29,1.08-1.35,1.92-2.41,2.52-3.15l.67-.81Q661.89,141.79,661.9,141.8Z" style="fill: rgb(38, 50, 56); transform-origin: 632.23px 203.73px 0px;" id="elw3pw58hbem" class="animable"></path><path d="M617.85,164.53a4,4,0,0,1,.13.72c.07.53.16,1.22.28,2.09s.25,2,.35,3.31.27,2.76.34,4.39.19,3.42.22,5.34,0,4,0,6.13c-.11,4.32-.4,9.07-1,14s-1.44,9.64-2.35,13.86c-.49,2.11-.94,4.11-1.46,6s-1,3.58-1.47,5.14-.95,3-1.36,4.19-.8,2.28-1.13,3.13-.57,1.47-.76,2a4.11,4.11,0,0,1-.3.67,3.34,3.34,0,0,1,.2-.71l.67-2c.3-.86.67-1.91,1-3.15s.86-2.63,1.29-4.21,1-3.27,1.41-5.14.93-3.85,1.4-6c.89-4.21,1.71-8.88,2.31-13.82s.88-9.66,1-14c0-2.15.09-4.2,0-6.11s-.08-3.7-.15-5.33-.18-3.1-.26-4.39-.18-2.4-.27-3.31-.14-1.57-.18-2.09A3.45,3.45,0,0,1,617.85,164.53Z" style="fill: rgb(38, 50, 56); transform-origin: 614.262px 200.015px 0px;" id="ellvpmjm82ztm" class="animable"></path><path d="M665.51,141.19a14.61,14.61,0,0,0,1.53,15c.64.84,1.61,1.67,2.62,1.38s1.42-1.65,1.46-2.77a17.18,17.18,0,0,0-5-12.74,19.64,19.64,0,0,0,9.41,6.51c1.4.45,3.21.62,4.1-.56s.26-2.78-.57-3.93a11.59,11.59,0,0,0-13.18-3.9,10.87,10.87,0,0,0,8.46-9.09c.21-1.69-.34-3.84-2-4.16a3.57,3.57,0,0,0-2.81,1,13.93,13.93,0,0,0-5,10.48,12.15,12.15,0,0,0-5.84-12c-1.31-.76-3-1.23-4.29-.42-1.61,1-1.55,3.42-1,5.24a16,16,0,0,0,9.58,9.92,9.09,9.09,0,0,0-8.28,1.66c-1.48,1.23-2.52,3.56-1.27,5s3.47.89,5.12.06a22.63,22.63,0,0,0,7.65-6.33" style="fill: rgb(194, 36, 203); transform-origin: 666.468px 141.598px 0px;" id="elpfj8zxhgs2e" class="animable"></path><path d="M667.56,151.45a48.53,48.53,0,0,0-.7-5.73,47.65,47.65,0,0,0-1.89-5.46,12.37,12.37,0,0,1,2.38,5.34A12.55,12.55,0,0,1,667.56,151.45Z" style="fill: rgb(38, 50, 56); transform-origin: 666.389px 145.855px 0px;" id="elyq0ul41kezb" class="animable"></path><path d="M673.47,145.43a23,23,0,0,0-3.79-2.76c-2.31-1.17-4.43-1.55-4.39-1.72a10,10,0,0,1,4.63,1.27A7.68,7.68,0,0,1,673.47,145.43Z" style="fill: rgb(38, 50, 56); transform-origin: 669.38px 143.19px 0px;" id="elkom9qn2qdi" class="animable"></path><path d="M669.51,133.16a8.64,8.64,0,0,1-1.11,4.47,7.06,7.06,0,0,1-3.09,3.39,20.65,20.65,0,0,0,2.63-3.63A43.68,43.68,0,0,0,669.51,133.16Z" style="fill: rgb(38, 50, 56); transform-origin: 667.412px 137.09px 0px;" id="elirn0qucz8vj" class="animable"></path><path d="M664.75,138.84a1.79,1.79,0,0,1,2.25,2.4,5.28,5.28,0,0,0-1.61-.35,7.55,7.55,0,0,0-.64-2" style="fill: rgb(255, 255, 255); transform-origin: 665.95px 139.986px 0px;" id="elf4zo3puh3y8" class="animable"></path><path d="M656.82,130.29a6,6,0,0,1,1.76,1.07,18.25,18.25,0,0,1,6,7.92,6.21,6.21,0,0,1,.54,2,36.14,36.14,0,0,0-3.38-6.06A36.18,36.18,0,0,0,656.82,130.29Z" style="fill: rgb(38, 50, 56); transform-origin: 660.97px 135.785px 0px;" id="el45njxv4jjgr" class="animable"></path><path d="M613.16,164.77a14.64,14.64,0,0,1-10.55,10.76c-1,.25-2.3.29-2.91-.56s-.08-2.18.58-3.08a17.22,17.22,0,0,1,11.86-6.83,19.67,19.67,0,0,1-11.41-.78c-1.38-.53-2.9-1.53-2.85-3s1.52-2.34,2.89-2.72a11.58,11.58,0,0,1,12.73,5.18,10.9,10.9,0,0,1-.93-12.39c.89-1.45,2.66-2.78,4.17-2a3.62,3.62,0,0,1,1.54,2.57,13.94,13.94,0,0,1-2.64,11.31,12.16,12.16,0,0,1,12.07-5.75c1.5.23,3.13.92,3.62,2.35.62,1.81-.92,3.64-2.52,4.69a15.91,15.91,0,0,1-13.68,1.77,9.09,9.09,0,0,1,5.43,6.47c.39,1.88-.24,4.35-2.14,4.72s-3.27-1.48-4-3.16a22.44,22.44,0,0,1-2-9.72" style="fill: rgb(194, 36, 203); transform-origin: 614.675px 163.323px 0px;" id="el2zylvl13o0w" class="animable"></path><path d="M605.16,171.5a48.18,48.18,0,0,1,4.12-4,47.87,47.87,0,0,1,4.88-3.1,12.74,12.74,0,0,0-5.2,2.69A12.59,12.59,0,0,0,605.16,171.5Z" style="fill: rgb(38, 50, 56); transform-origin: 609.66px 167.95px 0px;" id="elwl64xovoyn" class="animable"></path><path d="M604.29,163.11a23,23,0,0,1,4.68.21c2.54.53,4.44,1.56,4.52,1.4a10.07,10.07,0,0,0-4.41-1.9A7.79,7.79,0,0,0,604.29,163.11Z" style="fill: rgb(38, 50, 56); transform-origin: 608.89px 163.655px 0px;" id="eljeobjkqitwr" class="animable"></path><path d="M615.05,156a8.41,8.41,0,0,0-1.92,4.18,7.12,7.12,0,0,0,.29,4.58,21.07,21.07,0,0,1,.21-4.48A40,40,0,0,1,615.05,156Z" style="fill: rgb(38, 50, 56); transform-origin: 613.966px 160.38px 0px;" id="el8tgtkwa75iu" class="animable"></path><path d="M615.22,163.41a1.81,1.81,0,0,0-1.78-.84,1.85,1.85,0,0,0-1.48,1.31,5.11,5.11,0,0,1,1.48.73,7.06,7.06,0,0,1,1.78-1.2" style="fill: rgb(255, 255, 255); transform-origin: 613.59px 163.582px 0px;" id="elv1whhcgwaff" class="animable"></path><path d="M626.76,161.68a6.1,6.1,0,0,0-2.06-.27,18.19,18.19,0,0,0-5,.58,17.86,17.86,0,0,0-4.63,1.9,5.82,5.82,0,0,0-1.67,1.22,25.73,25.73,0,0,1,13.32-3.43Z" style="fill: rgb(38, 50, 56); transform-origin: 620.08px 163.257px 0px;" id="el7gptk9tf32l" class="animable"></path><path d="M640.46,102a20.31,20.31,0,0,1-19.75,6.87c-1.43-.32-3.05-1-3.28-2.49s1.25-2.76,2.63-3.47a23.85,23.85,0,0,1,19-1.17,27.35,27.35,0,0,1-13.71-8c-1.38-1.51-2.66-3.68-1.69-5.49s3.34-2,5.27-1.59a16.08,16.08,0,0,1,12.64,14.3,15.12,15.12,0,0,1,6.48-16c2-1.25,5-1.81,6.41.1.85,1.16.68,2.76.33,4.15a19.32,19.32,0,0,1-10.26,12.43,16.91,16.91,0,0,1,18.56.29c1.72,1.22,3.32,3.08,3.05,5.16-.35,2.64-3.39,4-6,4.28A22.16,22.16,0,0,1,642,105.1a12.57,12.57,0,0,1,2.76,11.38c-.68,2.59-3,5.27-5.57,4.55s-3.15-3.85-3.07-6.41a31.33,31.33,0,0,1,3.48-13.34" style="fill: rgb(194, 36, 203); transform-origin: 641.788px 102.484px 0px;" id="ele8qsixqfjhk" class="animable"></path><path d="M626.36,105.41c.1.2,3.29-1.58,7.62-2.48s8-.61,8-.83-3.65-.83-8.12.14S626.25,105.27,626.36,105.41Z" style="fill: rgb(38, 50, 56); transform-origin: 634.169px 103.567px 0px;" id="el2sy8b0frdh7" class="animable"></path><path d="M630.46,94.43c-.06.22,2.86.92,5.69,3.16s4.56,4.67,4.75,4.52A13.92,13.92,0,0,0,636.59,97C633.61,94.68,630.45,94.26,630.46,94.43Z" style="fill: rgb(38, 50, 56); transform-origin: 635.68px 98.2565px 0px;" id="elcattn96e4hv" class="animable"></path><path d="M648.23,92.23c-.07-.15-2.75,1.16-5,4s-2.64,5.9-2.45,5.89.85-2.75,3-5.45S648.36,92.42,648.23,92.23Z" style="fill: rgb(38, 50, 56); transform-origin: 644.486px 97.1692px 0px;" id="ellqp8do5qvr" class="animable"></path><path d="M643.87,101.55a2.48,2.48,0,0,0-4.34-1.42,7.09,7.09,0,0,1,1.39,1.82,10.08,10.08,0,0,1,3-.4" style="fill: rgb(255, 255, 255); transform-origin: 641.725px 100.615px 0px;" id="el1e6wniozi8b" class="animable"></path><path d="M659.28,106.52a8.13,8.13,0,0,0-2.39-1.6,25.48,25.48,0,0,0-13.46-2.85,8.59,8.59,0,0,0-2.83.49c0,.24,4.39-.43,9.61.71S659.17,106.72,659.28,106.52Z" style="fill: rgb(38, 50, 56); transform-origin: 649.94px 104.274px 0px;" id="ely67p6qn3emf" class="animable"></path><path d="M623.27,316.48a12.62,12.62,0,0,1,.5-1.66c.18-.53.39-1.18.6-1.94s.5-1.62.72-2.6a64.54,64.54,0,0,0,1.37-6.85,69.66,69.66,0,0,0,.63-8.54,70.5,70.5,0,0,0-.53-8.54,66.84,66.84,0,0,0-1.28-6.87c-.21-1-.48-1.84-.69-2.6s-.4-1.42-.58-1.95a9.5,9.5,0,0,1-.47-1.67,12.29,12.29,0,0,1,.66,1.6c.21.53.44,1.17.67,1.93s.53,1.62.76,2.6a57.36,57.36,0,0,1,1.41,6.9,65.59,65.59,0,0,1,.57,8.61,64.8,64.8,0,0,1-.68,8.6,58.32,58.32,0,0,1-1.48,6.88c-.25,1-.56,1.83-.8,2.58s-.48,1.4-.69,1.92A9.23,9.23,0,0,1,623.27,316.48Z" style="fill: rgb(38, 50, 56); transform-origin: 625.44px 294.87px 0px;" id="ellbwyt2yg0yp" class="animable"></path><path d="M628.23,317.3a11.94,11.94,0,0,1,.5-1.67c.18-.53.39-1.17.6-1.94s.5-1.62.72-2.59a63,63,0,0,0,1.36-6.86,67.5,67.5,0,0,0,.64-8.53,70.5,70.5,0,0,0-.53-8.54,67.08,67.08,0,0,0-1.28-6.88c-.21-1-.48-1.83-.69-2.6s-.41-1.42-.58-1.95a11.84,11.84,0,0,1-.48-1.67,10.43,10.43,0,0,1,.67,1.61c.21.52.44,1.16.67,1.93s.53,1.62.76,2.59a56,56,0,0,1,1.4,6.9,65.64,65.64,0,0,1,.58,8.61,64.66,64.66,0,0,1-.68,8.6,59.94,59.94,0,0,1-1.48,6.88c-.25,1-.56,1.83-.8,2.59s-.48,1.4-.69,1.92A11.67,11.67,0,0,1,628.23,317.3Z" style="fill: rgb(38, 50, 56); transform-origin: 630.4px 295.685px 0px;" id="eled169kurq4o" class="animable"></path><path d="M566.81,317.42s0-.3.15-.87.3-1.45.51-2.5.52-2.41.9-3.93.78-3.27,1.33-5.17,1.1-4,1.81-6.22,1.47-4.59,2.31-7.07c1.74-4.93,3.83-10.3,6.28-15.82s5.1-10.65,7.61-15.24c1.29-2.28,2.5-4.45,3.73-6.43s2.35-3.83,3.43-5.49,2.09-3.14,3-4.44,1.67-2.4,2.33-3.29,1.15-1.54,1.52-2a5.06,5.06,0,0,1,.56-.69,6.11,6.11,0,0,1-.48.75l-1.43,2.11c-.64.9-1.4,2-2.26,3.33s-1.87,2.79-2.9,4.48-2.21,3.5-3.37,5.51-2.4,4.16-3.68,6.44c-2.48,4.6-5.07,9.72-7.55,15.22s-4.54,10.86-6.31,15.77c-.85,2.47-1.68,4.81-2.35,7s-1.32,4.28-1.86,6.18-1,3.63-1.4,5.15-.74,2.83-1,3.91-.46,1.86-.61,2.47A4.36,4.36,0,0,1,566.81,317.42Z" style="fill: rgb(255, 255, 255); transform-origin: 584.545px 277.84px 0px;" id="elxu2fflbplg9" class="animable"></path><path d="M565.34,343.41a40.56,40.56,0,0,1,.25-13.13c.15,0-.08,3-.14,6.57S565.49,343.4,565.34,343.41Z" style="fill: rgb(255, 255, 255); transform-origin: 565.281px 336.845px 0px;" id="el073l3aixagff" class="animable"></path></g><g id="freepik--Shelf--inject-2" style="transform-origin: 354.07px 402.265px 0px;" class="animable"><rect x="514.82" y="378.98" width="33.64" height="68.15" style="fill: rgb(69, 90, 100); transform-origin: 531.64px 413.055px 0px;" id="elbamynwnjuk" class="animable"></rect><rect x="176.24" y="378.98" width="33.64" height="68.15" style="fill: rgb(69, 90, 100); transform-origin: 193.06px 413.055px 0px;" id="elzg7vzqbnyfm" class="animable"></rect><g id="ela00kwbp23p5"><g style="opacity: 0.3; transform-origin: 193.06px 396.41px 0px;" class="animable"><polygon points="176.24 402.03 209.88 402.67 209.88 390.15 176.24 390.15 176.24 402.03" id="eltkho8rs7tt" style="transform-origin: 193.06px 396.41px 0px;" class="animable"></polygon></g></g><g id="elsfzr7jfpx4a"><g style="opacity: 0.3; transform-origin: 531.64px 396.41px 0px;" class="animable"><polygon points="514.82 402.03 548.46 402.67 548.46 390.15 514.82 390.15 514.82 402.03" id="el71cqfsnt5hu" style="transform-origin: 531.64px 396.41px 0px;" class="animable"></polygon></g></g><rect x="106.94" y="357.66" width="494.25" height="32.5" style="fill: rgb(69, 90, 100); transform-origin: 354.065px 373.91px 0px;" id="elc12sjufpyg6" class="animable"></rect><path d="M601.2,390.15c0,.15-110.25.26-246.22.26s-246.24-.11-246.24-.26S219,389.89,355,389.89,601.2,390,601.2,390.15Z" style="fill: rgb(38, 50, 56); transform-origin: 354.97px 390.15px 0px;" id="elru5n68wuuvn" class="animable"></path><path d="M601.2,357.66c0,.14-110.25.26-246.22.26s-246.24-.12-246.24-.26S219,357.4,355,357.4,601.2,357.51,601.2,357.66Z" style="fill: rgb(38, 50, 56); transform-origin: 354.97px 357.66px 0px;" id="elqfmrmbtebic" class="animable"></path></g><g id="freepik--Cat--inject-2" style="transform-origin: 371.174px 306.399px 0px;" class="animable"><path d="M393.52,214.54s-2.2-21.92,7.63-35.08,19.39-15,47.7-17.34,51.89,8.37,59,23.12,5.84,34.83-1.23,52l-4.12,9.24s6,8.83,6.76,41.12S489.4,347.1,489.4,347.1l-33.48,10h-204s-14.59-35.7-12.81-53.09c2.47-24.09,20.3-72.74,74.94-72.74,13.82,0,35.39,6.5,44.05,7.46,35.48,3.89,38.54,1.35,38.54,1.35Z" style="fill: rgb(194, 36, 203); transform-origin: 375.777px 259.449px 0px;" id="elhryjsm5iw5j" class="animable"></path><g id="els805kff0ec"><g style="opacity: 0.3; transform-origin: 446.19px 295.475px 0px;" class="animable"><path d="M425.38,263.66s11.37,1,24.76,15.07S467,327.29,467,327.29l-1.87-.8Z" id="el1c6rqir7hwp" style="transform-origin: 446.19px 295.475px 0px;" class="animable"></path></g></g><path d="M532.55,348.56c-3.28-1.18-11.18-2.15-11.18-2.15s-10.73-4.28-22-9.67l-34.19-10.25s-3.36-23.09-13.31-40.55c-16.12-28.28-50.07-26.52-50.07-26.52l-20.43,41.35s18.74,19.78,22.42,36.46,0,19.67,0,19.67l108.79.16h26.71A9.87,9.87,0,0,0,532.55,348.56Z" style="fill: rgb(194, 36, 203); transform-origin: 460.33px 308.229px 0px;" id="elz3133w76zwe" class="animable"></path><g id="elf8v1qi7xw7i"><g style="opacity: 0.4; transform-origin: 462.062px 193.296px 0px;" class="animable"><path d="M473.44,196.7l-2.58-1.12a15.08,15.08,0,0,0-3.95-2L462.27,162a95.64,95.64,0,0,0-15.9.37s6.72,11.23,9.46,31.52a15,15,0,0,0-3.44,1.85,16.05,16.05,0,0,0,8.7,29,16.36,16.36,0,0,0,12.35-28Z" style="fill: rgb(255, 255, 255); transform-origin: 462.062px 193.296px 0px;" id="elxqzmtjzwyzb" class="animable"></path></g></g><g id="el9ao34twndbo"><circle cx="434.79" cy="194" r="14.36" style="fill: rgb(255, 255, 255); transform-origin: 434.79px 194px 0px; transform: rotate(-75.7deg);" class="animable"></circle></g><path d="M449.14,194a24.68,24.68,0,0,0-.55-3.48A14.19,14.19,0,0,0,430,180.74a13.48,13.48,0,0,0-3.57,1.93,13.21,13.21,0,0,0-3,3,14,14,0,0,0,0,16.67,13.47,13.47,0,0,0,3,3,13.16,13.16,0,0,0,3.57,1.92,14.24,14.24,0,0,0,18.62-9.77,25.36,25.36,0,0,0,.54-3.48.6.6,0,0,1,0,.23c0,.19,0,.41,0,.69a7,7,0,0,1-.09,1.11,10,10,0,0,1-.27,1.5,13.54,13.54,0,0,1-1.55,3.87,14.56,14.56,0,0,1-9.76,6.91,14.59,14.59,0,0,1-7.66-.6,14.51,14.51,0,0,1-6.8-5.08,14.51,14.51,0,0,1,0-17.27,14.71,14.71,0,0,1,6.8-5.07,14.49,14.49,0,0,1,7.66-.6,14.2,14.2,0,0,1,6.1,2.75,14.38,14.38,0,0,1,3.66,4.15,13.48,13.48,0,0,1,1.55,3.88,9.79,9.79,0,0,1,.27,1.5,6.93,6.93,0,0,1,.09,1.11c0,.27,0,.5,0,.69A.6.6,0,0,1,449.14,194Z" style="fill: rgb(38, 50, 56); transform-origin: 434.676px 194.008px 0px;" id="elmf3vdfg3bv" class="animable"></path><path d="M423,190.17c1.67-5,5.31-8.26,8.14-7.32s3.78,5.76,2.11,10.75-5.31,8.27-8.14,7.32S421.36,195.16,423,190.17Z" style="fill: rgb(194, 36, 203); transform-origin: 428.132px 191.886px 0px;" id="elf3in18twilp" class="animable"></path><path d="M403,181s4.94-37.64,10.7-41.92,27.68,26,27.68,26l-29.65,13.51Z" style="fill: rgb(194, 36, 203); transform-origin: 422.19px 159.833px 0px;" id="elswkjjrew5u" class="animable"></path><path d="M465.2,164.71s10.8-16.27,13.07-18.54,7.47-10.69,12.67-7.61,8.27,35.88,8.27,35.88l-22.81-4.53Z" style="fill: rgb(194, 36, 203); transform-origin: 482.205px 156.165px 0px;" id="elo0xqtumh0d" class="animable"></path><path d="M456,195.29a16.2,16.2,0,0,1,11.1-.3,1.23,1.23,0,0,1,1,2l-4.14,4.81a1.24,1.24,0,0,1-1.6.23l-7-4.52A1.23,1.23,0,0,1,456,195.29Z" style="fill: rgb(38, 50, 56); transform-origin: 461.614px 198.189px 0px;" id="el863kdaamm2q" class="animable"></path><path d="M270.66,427.45c-3.05-20.77-21.05-35.95-39.21-46.46-2.88-1.67-5.86-3.32-8-5.86s-3.31-6.22-2-9.27c1.76-4,6.76-5.23,11.08-6l20.9-3.49-5.64-29.27c-12,1.82-24.14,3.67-35.38,8.26s-21.65,12.29-27.12,23.13-5,25.07,3,34.16c6,6.79,15.24,10,21.43,16.62A27.45,27.45,0,0,1,215,437.78c-2.81,6.87-8.56,13-8.31,20.39.34,10.13,11.84,16.35,22,16.62a41.36,41.36,0,0,0,42.06-47.34Z" style="fill: rgb(194, 36, 203); transform-origin: 226.421px 400.953px 0px;" id="elxnbwhn1yl7" class="animable"></path><path d="M357.84,260.42a60.64,60.64,0,0,1-6.84-3.84,59.2,59.2,0,0,1-6.58-4.29,60.22,60.22,0,0,1,6.85,3.84A56.84,56.84,0,0,1,357.84,260.42Z" style="fill: rgb(38, 50, 56); transform-origin: 351.13px 256.355px 0px;" id="ell8v2w6dd24f" class="animable"></path><path d="M429.91,193.3c0,.55-1.72,1-3.85,1s-3.86-.44-3.86-1,1.73-1,3.86-1S429.91,192.75,429.91,193.3Z" style="fill: rgb(255, 255, 255); transform-origin: 426.055px 193.3px 0px;" id="elgit8bperxme" class="animable"></path><path d="M463.27,201.68a3.46,3.46,0,0,1,.25,1.08,11.47,11.47,0,0,1,0,3A11.59,11.59,0,0,1,462.2,210a10.37,10.37,0,0,1-3.83,3.91,9.34,9.34,0,0,1-5.31,1.31,8.87,8.87,0,0,1-4.24-1.43,7.73,7.73,0,0,1-2.16-2.11,3.09,3.09,0,0,1-.5-1A10.14,10.14,0,0,0,449,213.5a8.77,8.77,0,0,0,4.07,1.26,9.08,9.08,0,0,0,5-1.28,10.23,10.23,0,0,0,3.67-3.7,11.65,11.65,0,0,0,1.41-4.07A21.35,21.35,0,0,0,463.27,201.68Z" style="fill: rgb(38, 50, 56); transform-origin: 454.889px 208.457px 0px;" id="el8a4sjychf48" class="animable"></path><path d="M479.38,207.62a3.79,3.79,0,0,1-.47.91,17,17,0,0,1-1.61,2.29,7.68,7.68,0,0,1-3.38,2.44,6.79,6.79,0,0,1-5.08-.46,8.84,8.84,0,0,1-3.76-3.45,13.31,13.31,0,0,1-1.52-3.88,17.19,17.19,0,0,1-.39-2.76,3.62,3.62,0,0,1,0-1c.1,0,.16,1.46.74,3.7a13.3,13.3,0,0,0,1.57,3.71,8.58,8.58,0,0,0,3.58,3.24,6.41,6.41,0,0,0,4.7.47,7.57,7.57,0,0,0,3.26-2.23C478.56,208.84,479.29,207.56,479.38,207.62Z" style="fill: rgb(38, 50, 56); transform-origin: 471.258px 207.631px 0px;" id="elewc1ya54r1c" class="animable"></path><path d="M469,215.12c.05,0-.27.63-1.07,1.36a7.15,7.15,0,0,1-7.95,1.06,3.38,3.38,0,0,1-1.39-1c.05-.07.58.32,1.54.7a7.64,7.64,0,0,0,7.56-1C468.55,215.58,469,215.06,469,215.12Z" style="fill: rgb(38, 50, 56); transform-origin: 463.798px 216.704px 0px;" id="elarmnktpd0aj" class="animable"></path><g id="els1m9hhqn4s"><g style="opacity: 0.3; transform-origin: 424.475px 159.834px 0px;" class="animable"><path d="M413.05,175.86s0-31.91,3.15-32.4,19.7,22,19.7,22S422.81,178.51,413.05,175.86Z" id="elbf6d4kgn6kf" style="transform-origin: 424.475px 159.834px 0px;" class="animable"></path></g></g><path d="M437.36,165.2c-4.15-1-9.54-.24-13.67.84A8,8,0,0,1,428,168.6c-6.71,2.26-13.73,4.71-18.51,9.93l4.93,1.11,18.68-2.83Z" style="fill: rgb(194, 36, 203); transform-origin: 423.425px 172.187px 0px;" id="el0vvmvl3tfaj9" class="animable"></path><g id="el7a4sy86n3ol"><g style="opacity: 0.3; transform-origin: 481.075px 156.359px 0px;" class="animable"><path d="M468.75,166s18.52-26,21.37-24.57,3.28,29.35,3.28,29.35S475.16,173.77,468.75,166Z" id="elio5sgj6ohia" style="transform-origin: 481.075px 156.359px 0px;" class="animable"></path></g></g><path d="M494.73,171.37c-2.79-3.22-7.63-5.73-11.62-7.24a7.91,7.91,0,0,1,2,4.56c-6.77-2.06-13.9-4.14-20.83-2.66l3.37,3.77,16.85,8.54Z" style="fill: rgb(194, 36, 203); transform-origin: 479.505px 171.235px 0px;" id="elfc35m9oesu" class="animable"></path><g id="eld9q31sojswf"><circle cx="486.13" cy="191.89" r="14.36" style="fill: rgb(255, 255, 255); transform-origin: 486.13px 191.89px 0px; transform: rotate(-76.8deg);" class="animable"></circle></g><path d="M500.48,191.89a25.12,25.12,0,0,0-.54-3.48,14.35,14.35,0,0,0-5.24-7.79,14.14,14.14,0,0,0-13.38-2,14.25,14.25,0,0,0-6.55,4.92,14,14,0,0,0,0,16.67,13.47,13.47,0,0,0,3,3,13.16,13.16,0,0,0,3.57,1.92,14.24,14.24,0,0,0,7.42.64,14.07,14.07,0,0,0,6-2.63,14.34,14.34,0,0,0,5.24-7.78,25.36,25.36,0,0,0,.54-3.48.6.6,0,0,1,0,.23c0,.19,0,.41,0,.68a7,7,0,0,1-.09,1.12,10.23,10.23,0,0,1-.27,1.5,13.54,13.54,0,0,1-1.55,3.87,14.45,14.45,0,0,1-17.42,6.3,14.53,14.53,0,0,1-6.8-5.07,14.51,14.51,0,0,1,0-17.27,14.71,14.71,0,0,1,6.8-5.07,14.6,14.6,0,0,1,7.66-.61,14.56,14.56,0,0,1,9.76,6.91,13.48,13.48,0,0,1,1.55,3.88,9.79,9.79,0,0,1,.27,1.5,6.93,6.93,0,0,1,.09,1.11c0,.27,0,.5,0,.68A.64.64,0,0,1,500.48,191.89Z" style="fill: rgb(38, 50, 56); transform-origin: 486.056px 191.879px 0px;" id="elv2wub6uaieo" class="animable"></path><g id="elrji9pu5avn"><g style="opacity: 0.4; transform-origin: 492.192px 342.798px 0px;" class="animable"><path d="M503.83,338.41a34.48,34.48,0,0,1-20.3,13c-1,.21-2.2.28-2.75-.56s0-2,.6-2.79c3-4.38,5.76-8.94,9-13.15l.66-.86,8.29,2.69Z" style="fill: rgb(255, 255, 255); transform-origin: 492.192px 342.798px 0px;" id="elj17blkdzi9j" class="animable"></path></g></g><path d="M474.13,189.24c1.29-5.1,4.68-8.64,7.58-7.91s4.2,5.46,2.91,10.56-4.68,8.65-7.58,7.91S472.85,194.35,474.13,189.24Z" style="fill: rgb(194, 36, 203); transform-origin: 479.377px 190.566px 0px;" id="eloiuo4zjsbb" class="animable"></path><ellipse cx="476.31" cy="191.56" rx="3.85" ry="0.99" style="fill: rgb(255, 255, 255); transform-origin: 476.31px 191.56px 0px;" id="elki5h0nnlkb" class="animable"></ellipse><path d="M555.64,290.64c-2.71-.41-12.95.85-12.95.85l-24.45,4.59-21,.5-5.79,34.49s21.37-3.59,27.37-5.66S546.47,304,547.39,304s9.24-2.34,10.63-2.34l1.55-.68a1.93,1.93,0,0,0,1-2.43C559.64,295.84,557.61,290.94,555.64,290.64Z" style="fill: rgb(194, 36, 203); transform-origin: 526.072px 310.814px 0px;" id="elmxzuyw1aajo" class="animable"></path><g id="el468oxotkvyt"><g style="opacity: 0.3; transform-origin: 508.985px 312.835px 0px;" class="animable"><path d="M518.24,296.08s-4.36,24.41-11.42,32.17l-7.09,1.34,7.78-33.26Z" id="elsujhrbrric" style="transform-origin: 508.985px 312.835px 0px;" class="animable"></path></g></g><path d="M499.33,330.24c7.21-11.4,13.17-29.72,10.57-43l2.67,7a62.48,62.48,0,0,0-3.37-22.61l5.11,6.56c-2.14-10.29-6.18-22.87-11.85-31.68" style="fill: rgb(194, 36, 203); transform-origin: 506.82px 288.375px 0px;" id="elbjnlxjuvdjf" class="animable"></path><path d="M502.46,246.46a3.49,3.49,0,0,1,.37.52c.22.35.58.86,1,1.56a65.48,65.48,0,0,1,3.23,6.19,113.75,113.75,0,0,1,7.5,23.36l.21,1-.63-.8c-1.63-2.1-3.35-4.29-5.12-6.55l.44-.24a62.25,62.25,0,0,1,3.29,16.34,58.93,58.93,0,0,1,.1,6.36l0,1.26-.46-1.18c-.91-2.38-1.8-4.71-2.67-7l.49-.14a39.28,39.28,0,0,1,.52,9.42,55,55,0,0,1-1.15,8.56,76.41,76.41,0,0,1-4.24,13.69,71.17,71.17,0,0,1-4.14,8.5c-.53,1-1,1.67-1.32,2.17l-.36.55a.71.71,0,0,1-.13.17s0-.07.09-.2l.32-.57c.28-.51.74-1.22,1.24-2.21a75.54,75.54,0,0,0,4-8.53,77.2,77.2,0,0,0,4.11-13.66,55.82,55.82,0,0,0,1.1-8.5,38.7,38.7,0,0,0-.54-9.29l.48-.14c.87,2.25,1.77,4.57,2.68,6.95l-.5.09a60.43,60.43,0,0,0-.09-6.3A63.15,63.15,0,0,0,509,271.66l-.49-1.42.92,1.19,5.09,6.57-.41.19a118.28,118.28,0,0,0-7.3-23.34c-1.21-2.73-2.3-4.83-3.1-6.23-.38-.71-.71-1.23-.92-1.6A5.22,5.22,0,0,1,502.46,246.46Z" style="fill: rgb(38, 50, 56); transform-origin: 507.08px 288.33px 0px;" id="elxghkley7c5" class="animable"></path><g id="eltp576o1avlo"><g style="opacity: 0.4; transform-origin: 341.83px 349.319px 0px;" class="animable"><path d="M320.56,356.35a36.65,36.65,0,0,1,15.81-13.72,23.71,23.71,0,0,1,16.18,1.07c8.83,3.75,9.76,9.36,10.55,13.25Z" style="fill: rgb(255, 255, 255); transform-origin: 341.83px 349.319px 0px;" id="el2mkxmq9oorc" class="animable"></path></g></g><path d="M342.63,346.77a12.44,12.44,0,0,1,2.95-.12,15.49,15.49,0,0,1,7,1.66,9,9,0,0,1,3,2.61,7.44,7.44,0,0,1,1.24,3,5.59,5.59,0,0,1-.07,2.19,1.77,1.77,0,0,1-.29.75,8.86,8.86,0,0,0,0-2.88,7.44,7.44,0,0,0-1.27-2.8,9.07,9.07,0,0,0-2.88-2.45,16.84,16.84,0,0,0-6.74-1.74A24.43,24.43,0,0,1,342.63,346.77Z" style="fill: rgb(38, 50, 56); transform-origin: 349.763px 351.736px 0px;" id="el1ls5zm4qp8w" class="animable"></path><path d="M200.26,366.65a2.12,2.12,0,0,1-.25.54l-.81,1.47-3,5.27-.29.49-.1-.56a14.15,14.15,0,0,1,1.27-8.7l.42.28L195.21,368l-4.11,4.57-.5.55.06-.74a29.23,29.23,0,0,1,2.68-10,25.33,25.33,0,0,1,1.44-2.63,4.2,4.2,0,0,1,.62-.87,5.47,5.47,0,0,1-.48,1c-.32.61-.79,1.5-1.29,2.67a30.91,30.91,0,0,0-2.47,9.88l-.43-.18,4.09-4.59,2.25-2.5,1.3-1.45-.88,1.74a14,14,0,0,0-1.32,8.4l-.38-.07,3.2-5.18.91-1.41A2.09,2.09,0,0,1,200.26,366.65Z" style="fill: rgb(38, 50, 56); transform-origin: 195.43px 366.65px 0px;" id="elsnhihmy62z8" class="animable"></path><path d="M240.67,419a5.46,5.46,0,0,1-.92-.61l-2.45-1.84c-2.06-1.57-4.93-3.79-8.18-6.33l.4-.3c.38.89.78,1.82,1.18,2.77l2.45,5.8.22.51-.52-.19a11.52,11.52,0,0,1-6.11-5.26,10.07,10.07,0,0,1-.89-2.16,3.18,3.18,0,0,1-.16-.82A20.85,20.85,0,0,0,227,413.4a11.51,11.51,0,0,0,6,5l-.3.33-2.49-5.78L229,410.12l-.39-.93.79.63c3.23,2.56,6.06,4.83,8.07,6.47l2.35,1.95A4.58,4.58,0,0,1,240.67,419Z" style="fill: rgb(38, 50, 56); transform-origin: 233.18px 414.095px 0px;" id="eltxqp4scrco" class="animable"></path><path d="M274,242.59c-12,5-32.62,27.2-35.94,37.76l7.6-7.86A50,50,0,0,0,236.21,314c.59-5.57,1.37-9.37,4-13.91-2.73,8.05-1.36,20.42,2.15,28.17" style="fill: rgb(194, 36, 203); transform-origin: 254.524px 285.425px 0px;" id="el353cu0ce6dc" class="animable"></path><path d="M242.38,328.29a3.6,3.6,0,0,1-.23-.47c-.13-.31-.36-.76-.59-1.38a39.76,39.76,0,0,1-1.69-5.53,49.58,49.58,0,0,1-1.21-9,40.31,40.31,0,0,1,.14-5.65,27.47,27.47,0,0,1,1.24-6.2l.37.17a26.65,26.65,0,0,0-2.7,6.36,46.67,46.67,0,0,0-1.27,7.48l-.15,1.44-.31-1.41a49.09,49.09,0,0,1-1-15.41,50,50,0,0,1,10.44-26.35l.39.33-7.61,7.86-.79.82.37-1.06a41,41,0,0,1,5.41-9.76c2.09-2.89,4.23-5.53,6.35-7.94a117.61,117.61,0,0,1,11.95-11.8,59.55,59.55,0,0,1,8.92-6.45,22.75,22.75,0,0,1,2.61-1.34l.7-.31a1.06,1.06,0,0,1,.24-.09l-.23.13-.67.35a24.3,24.3,0,0,0-2.57,1.41,62.21,62.21,0,0,0-8.8,6.54,118.52,118.52,0,0,0-11.83,11.84c-2.1,2.41-4.22,5.05-6.29,7.93a41.15,41.15,0,0,0-5.32,9.64l-.41-.25,7.6-7.87.39.34a50,50,0,0,0-10.35,26.08,49,49,0,0,0,.92,15.25l-.46,0a47,47,0,0,1,1.31-7.55,27.12,27.12,0,0,1,2.78-6.45l1-1.74-.65,1.91a27.14,27.14,0,0,0-1.26,6.11,39.83,39.83,0,0,0-.18,5.6,49.31,49.31,0,0,0,1.11,9,43.43,43.43,0,0,0,1.57,5.53c.21.63.43,1.09.54,1.41S242.38,328.29,242.38,328.29Z" style="fill: rgb(38, 50, 56); transform-origin: 254.364px 285.445px 0px;" id="el3ve6o5ewvmn" class="animable"></path><path d="M274,339s-.1-.06-.26-.2-.41-.36-.71-.66c-.61-.58-1.48-1.46-2.52-2.64a53.85,53.85,0,0,1-7.37-10.68l.43-.09a30.36,30.36,0,0,0,.55,8.73l.17.83-.6-.6a23.26,23.26,0,0,1-6.75-15.79l.49.07a22.11,22.11,0,0,0-.7,10.58l.34,1.89-.74-1.77a31.86,31.86,0,0,1-2.4-10.12,26.53,26.53,0,0,1,0-2.88c0-.33,0-.58,0-.75a1.11,1.11,0,0,1,0-.26,5.84,5.84,0,0,1,0,1c0,.66.05,1.63.16,2.86a33.16,33.16,0,0,0,2.55,10l-.4.12a22.1,22.1,0,0,1,.64-10.8l.45-1.44,0,1.51a22.93,22.93,0,0,0,6.6,15.44l-.43.23a30.89,30.89,0,0,1-.51-8.87l.07-.78.36.7a57.65,57.65,0,0,0,7.17,10.72c1,1.2,1.85,2.1,2.42,2.72S274,339,274,339Z" style="fill: rgb(38, 50, 56); transform-origin: 263.945px 326.83px 0px;" id="eln43xn0zufpo" class="animable"></path><path d="M413.45,357.06a5.25,5.25,0,0,1-.79,0l-2.24-.12-8.16-.52-.79-.05.72-.33a12.48,12.48,0,0,0,5.67-5.38l.27.35L403,352.23l-.41.1.1-.42a32.89,32.89,0,0,0,1.08-6.25A34,34,0,0,0,398.47,325a34.62,34.62,0,0,0-4.09-5.18l-1.28-1.26c-.3-.29-.45-.45-.43-.46a2.13,2.13,0,0,1,.49.38c.32.27.79.66,1.37,1.19a32.55,32.55,0,0,1,4.25,5.12,33.77,33.77,0,0,1,5.53,21,32.27,32.27,0,0,1-1.11,6.35l-.3-.31,5.12-1.2.52-.13-.25.47a12.69,12.69,0,0,1-5.94,5.52l-.07-.38,8.15.7,2.24.22A4.19,4.19,0,0,1,413.45,357.06Z" style="fill: rgb(38, 50, 56); transform-origin: 403.059px 337.587px 0px;" id="elzaavxc84hl" class="animable"></path><path d="M480.53,236.73a1.4,1.4,0,0,1-.17.36c-.13.23-.31.57-.57,1a37.42,37.42,0,0,1-2.46,3.56,41.15,41.15,0,0,1-11.22,9.94l-.59.36.23-.65a15.11,15.11,0,0,0,.88-5.79l.48.12a22.57,22.57,0,0,1-8.06,8l-.52.31.15-.59c.61-2.46,1.2-4.81,1.75-7l.4.21a24.09,24.09,0,0,1-8.19,5.77l-.52.22.31-.47a20.28,20.28,0,0,0,2.44-5.19c.2-.64.32-1.15.41-1.49a3.57,3.57,0,0,1,.14-.52,2,2,0,0,1-.05.54c-.06.35-.15.86-.32,1.52a19.36,19.36,0,0,1-2.33,5.33l-.21-.25a24.37,24.37,0,0,0,8-5.77l.62-.68-.22.89c-.53,2.2-1.11,4.55-1.71,7l-.37-.28a22.42,22.42,0,0,0,7.87-7.8l.44-.73,0,.85a15.7,15.7,0,0,1-.94,6l-.35-.3a42.41,42.41,0,0,0,11.23-9.71c1.17-1.43,2-2.63,2.56-3.46A15.06,15.06,0,0,1,480.53,236.73Z" style="fill: rgb(38, 50, 56); transform-origin: 466.325px 245.335px 0px;" id="elp9edrze7018" class="animable"></path><path d="M355,265.74a7,7,0,0,1-1.18-.66c-.73-.46-1.8-1.11-3.13-1.88a86.09,86.09,0,0,0-10.83-5.29,84.79,84.79,0,0,0-11.47-3.66c-1.5-.37-2.72-.64-3.57-.81a7.25,7.25,0,0,1-1.3-.33,6.08,6.08,0,0,1,1.34.13c.86.11,2.1.33,3.61.65a71,71,0,0,1,11.59,3.54,71.8,71.8,0,0,1,10.82,5.45c1.31.82,2.36,1.51,3.06,2A7.06,7.06,0,0,1,355,265.74Z" style="fill: rgb(38, 50, 56); transform-origin: 339.26px 259.425px 0px;" id="el61ropyetda7" class="animable"></path><path d="M411.38,177.53s.06-.12.22-.31a8.89,8.89,0,0,1,.72-.83,19.16,19.16,0,0,1,3.08-2.61,34.47,34.47,0,0,1,12.26-5.1l.11,0-.14.42a9.89,9.89,0,0,0-3.79-2.72l-.57-.23.57-.24a19.79,19.79,0,0,1,9.8-1.36,17.48,17.48,0,0,1,2.83.57,4.73,4.73,0,0,1,1,.36c0,.08-1.41-.4-3.84-.61a20.17,20.17,0,0,0-9.58,1.51v-.47a10.16,10.16,0,0,1,4,2.86l.27.32-.42.1-.11,0a36.62,36.62,0,0,0-12.16,4.9A32.35,32.35,0,0,0,411.38,177.53Z" style="fill: rgb(38, 50, 56); transform-origin: 424.425px 170.975px 0px;" id="el530ru0xdlyb" class="animable"></path><path d="M466.46,165.68s.13-.05.38-.1.63-.13,1.12-.18a24.72,24.72,0,0,1,4.17-.11,35.35,35.35,0,0,1,13.32,3.39l-.38.24,0-.25a6.41,6.41,0,0,0-.89-2.31c-.4-.72-.86-1.41-1.27-2.11l-.31-.54.6.18a23.52,23.52,0,0,1,9.18,5.1,16.27,16.27,0,0,1,2.07,2.26,4.53,4.53,0,0,1,.59.94,30,30,0,0,0-2.88-3,24.41,24.41,0,0,0-9.09-4.86l.28-.37c.4.68.86,1.36,1.28,2.11a6.79,6.79,0,0,1,1,2.5l0,.3,0,.44-.41-.2a37.26,37.26,0,0,0-13.11-3.49,31.22,31.22,0,0,0-4.13-.06A10.14,10.14,0,0,1,466.46,165.68Z" style="fill: rgb(38, 50, 56); transform-origin: 480.75px 167.95px 0px;" id="elzjxlioscoc" class="animable"></path><g id="eldewt783yl0d"><g style="opacity: 0.4; transform-origin: 404.343px 193.683px 0px;" class="animable"><path d="M394.3,198c5.22,1.35,10,2.57,15.36,2.31,1.71-.08,3.68-.51,4.46-2a3.68,3.68,0,0,0-.92-4.08,11,11,0,0,0-3.84-2.21l-12.45-5C395.44,191.47,394.38,195.43,394.3,198Z" style="fill: rgb(255, 255, 255); transform-origin: 404.343px 193.683px 0px;" id="elmn07en4ggz" class="animable"></path></g></g><g id="elxcysemss74p"><g style="opacity: 0.4; transform-origin: 505.931px 211.806px 0px;" class="animable"><path d="M511.61,199.72c-.9-2.27-.34,4.9-1.83,6.83a31.59,31.59,0,0,1-5.4,4.92,17.16,17.16,0,0,0-4.87,5.39c-1,2-1.15,4.59.41,6.13,1.29,1.25,3.27,1.36,5.06,1.34,2.13,0,4.62-.36,5.7-2.2C510.68,222.13,515.46,209.4,511.61,199.72Z" style="fill: rgb(255, 255, 255); transform-origin: 505.931px 211.806px 0px;" id="elqzcm0se84bk" class="animable"></path></g></g><g id="elq7p3kjx11fh"><g style="opacity: 0.4; transform-origin: 480.26px 295.314px 0px;" class="animable"><path d="M499.35,274.89c-3.63-7.84-9.65-15-17.8-17.9s-18.49-.32-22.78,7.18a21.18,21.18,0,0,0-2.23,12.28,77.78,77.78,0,0,0,2.56,12.4c3.11,12.27,6.94,25.81,7.91,38.44l26.28,7.51c5-11.31,10.06-22.93,10.76-35.28A51.85,51.85,0,0,0,499.35,274.89Z" style="fill: rgb(255, 255, 255); transform-origin: 480.26px 295.314px 0px;" id="el5i6olq9iu26" class="animable"></path></g></g><g id="eln753xgzfbh"><g style="opacity: 0.4; transform-origin: 320.675px 295.555px 0px;" class="animable"><path d="M348.57,283.58c2.76,6.16-28,35.7-49.79,39.38-1.83.31-4,.45-5.29-.84s-1.12-4,.2-5.63,3.3-2.44,5.2-3.26c9.2-4,16-10.26,22.74-17.67s12.54-17.71,10.95-27.62C332.58,267.94,344.61,274.76,348.57,283.58Z" style="fill: rgb(255, 255, 255); transform-origin: 320.675px 295.555px 0px;" id="elwsf1gy4osts" class="animable"></path></g></g><g id="elfpzmls2wi3"><g style="opacity: 0.4; transform-origin: 526.125px 351.845px 0px;" class="animable"><path d="M513,357.06l8.42-10.43s12.6-.18,16,5.5a8.93,8.93,0,0,1,1.17,2.06,18.22,18.22,0,0,1,.66,2.87Z" style="fill: rgb(255, 255, 255); transform-origin: 526.125px 351.845px 0px;" id="elf8n4kjkyih7" class="animable"></path></g></g><path d="M533.85,357.86a15.5,15.5,0,0,1-.53-2.18,7,7,0,0,0-2.61-4.38,7.87,7.87,0,0,0-5.09-.83,13.24,13.24,0,0,1-2.23.23,7.28,7.28,0,0,1,2.18-.6,10,10,0,0,1,2.48-.15,6.13,6.13,0,0,1,2.94.91,5.47,5.47,0,0,1,2,2.36,9.35,9.35,0,0,1,.71,2.38A7.3,7.3,0,0,1,533.85,357.86Z" style="fill: rgb(38, 50, 56); transform-origin: 528.635px 353.895px 0px;" id="ela781sea2f6r" class="animable"></path><g id="elvyojdostg4"><g style="opacity: 0.4; transform-origin: 450.14px 333.78px 0px;" class="animable"><path d="M470.27,328a63.9,63.9,0,0,1-35.5,24.34c-1.85.48-4.56.32-4.76-1.58a3.47,3.47,0,0,1,1.26-2.51c10.25-11.09,21-22.17,31.28-33.26l2.59,11.51Z" style="fill: rgb(255, 255, 255); transform-origin: 450.14px 333.78px 0px;" id="elnhxn4b1hhh" class="animable"></path></g></g><g id="elky80fxb9ssa"><g style="opacity: 0.4; transform-origin: 435.602px 295.434px 0px;" class="animable"><path d="M454.28,290s-19.61,19-31.56,24.1c-1.34.57-2.9,1.1-4.21.45-1.5-.76-1.91-2.84-1.34-4.43a11,11,0,0,1,3.08-3.95c9.22-8.76,17.44-19.5,24.38-30.15C444.63,276,447.34,277.85,454.28,290Z" style="fill: rgb(255, 255, 255); transform-origin: 435.602px 295.434px 0px;" id="elw7pgrkycqr" class="animable"></path></g></g><g id="el6cqp813vpsf"><g style="opacity: 0.4; transform-origin: 230.965px 453.217px 0px;" class="animable"><path d="M250.2,469.33c3.34-1.54,4.72-6.11,5.11-9.77a25.36,25.36,0,0,0-40.07-23.23s-2.66,6.22-3.79,8.22-10.28,13.9-.51,23.12,21.3,7.21,24.71,6.69A40,40,0,0,0,250.2,469.33Z" style="fill: rgb(255, 255, 255); transform-origin: 230.965px 453.217px 0px;" id="el7is5ssbesbr" class="animable"></path></g></g><path d="M539.25,357.06s0-.47-.23-1.34a9.05,9.05,0,0,0-1.67-3.53h0a11.52,11.52,0,0,0-5.93-4.07,31.08,31.08,0,0,0-10-1.53h-.07L499.24,337h0l-34.19-10.22-.15-.05,0-.15c-.45-2.39-.93-4.93-1.46-7.48-2.48-12.19-6.05-23.68-11.59-33a56,56,0,0,0-9.43-12,44.53,44.53,0,0,0-10.85-7.63,65.81,65.81,0,0,0-10.23-4c-3.1-1-5.81-1.63-8-2.16l-5.13-1.19-1.33-.31-.45-.12a4.22,4.22,0,0,1,.46.07l1.34.26c1.18.23,2.92.58,5.16,1.09s4.95,1.15,8.07,2.08a65,65,0,0,1,10.3,4,44.44,44.44,0,0,1,11,7.65,56,56,0,0,1,9.54,12c5.61,9.33,9.2,20.87,11.69,33.09.53,2.56,1,5.1,1.46,7.49l-.18-.2,34.17,10.28h0l22,9.72h-.07a30.68,30.68,0,0,1,10.13,1.62,11.61,11.61,0,0,1,6,4.22h0a9,9,0,0,1,1.63,3.63A6.06,6.06,0,0,1,539.25,357.06Z" style="fill: rgb(38, 50, 56); transform-origin: 472.841px 307.875px 0px;" id="el7n6dad90eqd" class="animable"></path><g id="el27rnp20u4ge"><g style="opacity: 0.3; transform-origin: 352.266px 322.235px 0px;" class="animable"><path d="M361.7,340.07a19.58,19.58,0,0,0-14.61-5.9,39.46,39.46,0,0,0,8.81-33,38.53,38.53,0,0,0-5.75-13.83A45.91,45.91,0,0,1,351.54,304a73.3,73.3,0,0,1-14.1,37.63c4.94-.79,12.27.39,18,3A13.7,13.7,0,0,1,363,354.88l.41,2.25,3.62-.18C367.48,351.56,365.44,344,361.7,340.07Z" id="ell4p95v41elq" style="transform-origin: 352.266px 322.235px 0px;" class="animable"></path></g></g><g id="el05lpfpmviy8m"><g style="opacity: 0.4; transform-origin: 291.399px 275.578px 0px;" class="animable"><path d="M310.89,263.32s-8.1-.9-22.77,3.12c-1,.27-9.8,8.1-13.93,12.93-1.27,1.47-2.56,3.27-2.23,5.18.4,2.29,3.06,3.6,5.37,3.34s4.31-1.67,6.19-3c9.13-6.61,18.62-14.43,27.37-21.54" style="fill: rgb(255, 255, 255); transform-origin: 291.399px 275.578px 0px;" id="elaq1h66u2k6" class="animable"></path></g></g><path d="M250.69,356.91l.56,0,1.64,0,6.33,0,23.57-.07,80.31-.06-.25.29a34.28,34.28,0,0,0-.7-3.55,13.54,13.54,0,0,0-1.45-3.31,13.07,13.07,0,0,0-5.31-4.95,35.92,35.92,0,0,0-14.72-3.43,21.24,21.24,0,0,0-3.45.24l-.63.1.38-.52a73.68,73.68,0,0,0,12-25.16,72.59,72.59,0,0,0,2.13-13.12,48.16,48.16,0,0,0-.65-12.69,30,30,0,0,0-4.5-11.11,31.28,31.28,0,0,0-7.94-8.07A44,44,0,0,0,319.11,264a67.68,67.68,0,0,0-16.85-.14c-4.95.54-9.17,1.35-12.59,2.06s-6.08,1.34-7.88,1.75l-2,.47-.7.14.69-.19,2-.52c1.79-.44,4.43-1.09,7.85-1.84s7.65-1.58,12.61-2.16a67.66,67.66,0,0,1,16.94.07,44.33,44.33,0,0,1,19.07,7.44,36.08,36.08,0,0,1,4.34,3.64,31,31,0,0,1,3.72,4.53,30.36,30.36,0,0,1,4.6,11.27,49.11,49.11,0,0,1,.68,12.81,73.4,73.4,0,0,1-14.2,38.56l-.25-.41a22.63,22.63,0,0,1,3.54-.24,36.42,36.42,0,0,1,15,3.49,13.59,13.59,0,0,1,5.51,5.14,14.74,14.74,0,0,1,1.51,3.43,33.93,33.93,0,0,1,.7,3.62l0,.3h-.3l-80.31-.12L259.22,357l-6.33-.05-1.64,0Z" style="fill: rgb(38, 50, 56); transform-origin: 307.045px 310.146px 0px;" id="elgvmn1o6gqgd" class="animable"></path><path d="M450.37,207.72c0,.14-17.92,2.82-40.06,6s-40.11,5.63-40.13,5.48,17.91-2.82,40.06-6S450.35,207.57,450.37,207.72Z" style="fill: rgb(38, 50, 56); transform-origin: 410.275px 213.46px 0px;" id="eltcfloa3jb5" class="animable"></path><path d="M452.29,209.8a3.58,3.58,0,0,1-.65.22l-1.88.54c-1.64.46-4,1.09-7,1.84-5.89,1.51-14.07,3.44-23.16,5.31S402.26,221,396.25,222c-3,.47-5.44.83-7.13,1l-1.94.25a4.35,4.35,0,0,1-.68.05,3,3,0,0,1,.66-.16l1.93-.34,7.1-1.21c6-1,14.25-2.54,23.34-4.4s17.26-3.74,23.18-5.16l7-1.68,1.9-.44A2.82,2.82,0,0,1,452.29,209.8Z" style="fill: rgb(38, 50, 56); transform-origin: 419.395px 216.55px 0px;" id="elkquokywfo2" class="animable"></path><path d="M530.5,207.73c0,.15-13.25,0-29.59-.44s-29.57-.82-29.57-1,13.25.06,29.59.45S530.5,207.59,530.5,207.73Z" style="fill: rgb(38, 50, 56); transform-origin: 500.92px 207.008px 0px;" id="elhoz9v23yj0d" class="animable"></path><path d="M520.41,217.75c0,.15-10.33-1.65-23-4s-22.95-4.38-22.92-4.52,10.33,1.65,23,4S520.44,217.61,520.41,217.75Z" style="fill: rgb(38, 50, 56); transform-origin: 497.45px 213.491px 0px;" id="elhfrg0m3xhcq" class="animable"></path><path d="M559.53,299.06a11.53,11.53,0,0,1-1.34-1.7,7.78,7.78,0,0,0-4-3,7,7,0,0,0-4.83.94,14.57,14.57,0,0,1-1.91,1,6.68,6.68,0,0,1,1.73-1.31,10.26,10.26,0,0,1,2.17-1,5.58,5.58,0,0,1,3-.12,7.54,7.54,0,0,1,4.12,3.28A7.43,7.43,0,0,1,559.53,299.06Z" style="fill: rgb(38, 50, 56); transform-origin: 553.49px 296.39px 0px;" id="el3rbqpobcyli" class="animable"></path><g id="ellwytqg4kc1o"><g style="opacity: 0.4; transform-origin: 530.27px 302.165px 0px;" class="animable"><path d="M534.57,293a37.91,37.91,0,0,1-6.41,18.33c-1.65-2.26-2.07-5.2-2.09-8a75.6,75.6,0,0,0-.1-8.65Z" style="fill: rgb(255, 255, 255); transform-origin: 530.27px 302.165px 0px;" id="el0rv9lfavtv3" class="animable"></path></g></g><path d="M464.69,195.36c0,.16-1.84,0-4.06.22s-4,.73-4,.59a8.78,8.78,0,0,1,4-1.11A9,9,0,0,1,464.69,195.36Z" style="fill: rgb(255, 255, 255); transform-origin: 460.66px 195.573px 0px;" id="el09rciqdkknmf" class="animable"></path><path d="M408.81,156a14.64,14.64,0,0,1-.38,2.65c-.32,1.8-.69,4-1.1,6.35s-.71,4.55-1,6.36a16,16,0,0,1-.48,2.63,12.34,12.34,0,0,1,.11-2.67c.15-1.65.43-3.92.83-6.41s.87-4.72,1.26-6.33A12.79,12.79,0,0,1,408.81,156Z" style="fill: rgb(255, 255, 255); transform-origin: 407.316px 164.995px 0px;" id="elp78z616kc2g" class="animable"></path><path d="M480.7,146.76A87.58,87.58,0,0,1,475,154.4a86.8,86.8,0,0,1-6.14,7.32,90.12,90.12,0,0,1,5.73-7.64A89.1,89.1,0,0,1,480.7,146.76Z" style="fill: rgb(255, 255, 255); transform-origin: 474.78px 154.24px 0px;" id="el1xldfydunwr" class="animable"></path><path d="M458.67,224.33a10.28,10.28,0,0,1-9.66-3.07,23.43,23.43,0,0,0,4.58,2.31A23.67,23.67,0,0,0,458.67,224.33Z" style="fill: rgb(255, 255, 255); transform-origin: 453.84px 222.906px 0px;" id="el6mev967h8tc" class="animable"></path><path d="M380.33,247.88c-.06.14-2.2-.74-4.9-1.61s-4.95-1.42-4.92-1.57a17.34,17.34,0,0,1,5.08,1.08A17,17,0,0,1,380.33,247.88Z" style="fill: rgb(255, 255, 255); transform-origin: 375.42px 246.297px 0px;" id="elk3xfjyyy0e" class="animable"></path><path d="M389,247c-.05.14-3.18-.82-7.06-1.9s-7.05-1.88-7-2a8.26,8.26,0,0,1,2.13.3c1.3.26,3.08.68,5,1.22s3.69,1.11,4.94,1.56A8.12,8.12,0,0,1,389,247Z" style="fill: rgb(255, 255, 255); transform-origin: 381.97px 245.057px 0px;" id="el75xdbgqrrfx" class="animable"></path><path d="M251,265.42a94,94,0,0,1,10.75-8.9,46.31,46.31,0,0,1-5.21,4.65A45.32,45.32,0,0,1,251,265.42Z" style="fill: rgb(255, 255, 255); transform-origin: 256.375px 260.97px 0px;" id="el5wt7itjefbs" class="animable"></path><path d="M248.1,278a15,15,0,0,1,1.37-2.84,56.48,56.48,0,0,1,4.15-6.38,57.35,57.35,0,0,1,5-5.77,15.94,15.94,0,0,1,2.34-2.11,22.34,22.34,0,0,1-2.07,2.37c-1.3,1.43-3,3.46-4.81,5.83s-3.23,4.6-4.25,6.25A26.86,26.86,0,0,1,248.1,278Z" style="fill: rgb(255, 255, 255); transform-origin: 254.53px 269.45px 0px;" id="elgu9mcg6az9i" class="animable"></path><path d="M268.61,326.67a19.13,19.13,0,0,1-3.84-9.82c.15,0,.64,2.29,1.71,5S268.75,326.59,268.61,326.67Z" style="fill: rgb(255, 255, 255); transform-origin: 266.696px 321.76px 0px;" id="el1rdyyd5zekn" class="animable"></path><path d="M277.64,336a11,11,0,0,1-1.83-2,35,35,0,0,1-3.53-5.64,35.53,35.53,0,0,1-2.41-6.2,10.77,10.77,0,0,1-.55-2.7,22,22,0,0,1,.9,2.59,46.73,46.73,0,0,0,5.88,11.73A21.57,21.57,0,0,1,277.64,336Z" style="fill: rgb(255, 255, 255); transform-origin: 273.48px 327.73px 0px;" id="elqup675dwclo" class="animable"></path><path d="M207.43,338.92a9.12,9.12,0,0,1,2.14-1.19,38,38,0,0,1,11.31-3.2,9.13,9.13,0,0,1,2.44-.11,14.08,14.08,0,0,1-2.39.47c-1.47.26-3.5.68-5.69,1.3a57.92,57.92,0,0,0-5.53,1.88A14.74,14.74,0,0,1,207.43,338.92Z" style="fill: rgb(255, 255, 255); transform-origin: 215.375px 336.652px 0px;" id="el7gxlqzsrvsd" class="animable"></path><path d="M205.42,345.1a9.33,9.33,0,0,1,2-2,24.06,24.06,0,0,1,12.27-5.38,9.57,9.57,0,0,1,2.79-.09c0,.08-1.06.16-2.74.46a29.13,29.13,0,0,0-6.36,1.93,28.6,28.6,0,0,0-5.74,3.37C206.25,344.43,205.48,345.16,205.42,345.1Z" style="fill: rgb(255, 255, 255); transform-origin: 213.95px 341.336px 0px;" id="ela7jlx3z16b" class="animable"></path><path d="M404.18,311.66a50.33,50.33,0,0,1-3.88-6.26,51.93,51.93,0,0,1-3.43-6.53,105.53,105.53,0,0,1,7.31,12.79Z" style="fill: rgb(255, 255, 255); transform-origin: 400.525px 305.265px 0px;" id="el828f4vvqhj" class="animable"></path><path d="M405.79,322c-.08,0-.58-1.16-1.52-3a57.08,57.08,0,0,0-4.18-7,56.27,56.27,0,0,0-5.2-6.3c-1.44-1.52-2.4-2.4-2.35-2.46s.29.16.75.53,1.1.94,1.86,1.67a43.77,43.77,0,0,1,9.45,13.41c.43,1,.75,1.75.94,2.31A3,3,0,0,1,405.79,322Z" style="fill: rgb(255, 255, 255); transform-origin: 399.164px 312.615px 0px;" id="el310sfvvejwh" class="animable"></path><path d="M452.37,228a10.6,10.6,0,0,1-4.47-.61,10.47,10.47,0,0,1-4.07-2c.07-.13,1.86.77,4.22,1.47S452.39,227.8,452.37,228Z" style="fill: rgb(255, 255, 255); transform-origin: 448.1px 226.705px 0px;" id="eleczuym2r4e8" class="animable"></path></g><defs>     <filter id="active" height="200%">         <feMorphology in="SourceAlpha" result="DILATED" operator="dilate" radius="2"></feMorphology>                <feFlood flood-color="#32DFEC" flood-opacity="1" result="PINK"></feFlood>        <feComposite in="PINK" in2="DILATED" operator="in" result="OUTLINE"></feComposite>        <feMerge>            <feMergeNode in="OUTLINE"></feMergeNode>            <feMergeNode in="SourceGraphic"></feMergeNode>        </feMerge>    </filter>    <filter id="hover" height="200%">        <feMorphology in="SourceAlpha" result="DILATED" operator="dilate" radius="2"></feMorphology>                <feFlood flood-color="#ff0000" flood-opacity="0.5" result="PINK"></feFlood>        <feComposite in="PINK" in2="DILATED" operator="in" result="OUTLINE"></feComposite>        <feMerge>            <feMergeNode in="OUTLINE"></feMergeNode>            <feMergeNode in="SourceGraphic"></feMergeNode>        </feMerge>            <feColorMatrix type="matrix" values="0   0   0   0   0                0   1   0   0   0                0   0   0   0   0                0   0   0   1   0 "></feColorMatrix>    </filter></defs></svg>