<svg xmlns="http://www.w3.org/2000/svg" height="1000" width="1000" version="1.1" xmlns:xlink="http://www.w3.org/1999/xlink" xmlns:svgjs="http://svgjs.com/svgjs"><rect fill="#ffffff" width="1000" height="1000"></rect><g><path d="M341.71 504.93C294.86 473.08 290.43 436.98 289.24 389.55L289.14 386.98C288.16 348.22 284.51 345.27 260.64 326.53L260.54 326.43C250.58 319.63 249.01 310.85 250.88 304.83 253.05 297.83 259.56 293.59 267.94 293.59 275.04 293.59 283.13 296.65 291.21 302.56 317.55 321.6 325.44 340.14 326.52 385.21L326.72 392.8C327.6 431.46 328.1 452.76 364.69 480.18L341.71 504.93Z" fill="#8f227c" opacity="1" stroke-width="4" stroke="#000000"></path><path d="M341.81 505.03C335.49 500.79 329.77 496.25 324.84 491.62 320.01 487.18 315.67 482.54 312.02 477.71L311.92 477.61H312.02C312.02 477.61 316.07 478.8 321.19 479.68 326.03 480.47 332.83 481.07 338.45 479.59 341.51 478.7 346.05 477.12 349.79 473.87 352.06 471.99 352.95 470.41 352.95 470.41 356.7 473.87 360.64 477.12 364.69 480.08L341.81 505.03Z" fill="#8f227c00" opacity="0" stroke-width="4" stroke="#ffffff00"></path><path d="M632.14 705.52L664.39 680.57H724.55C724.74 680.57 724.94 680.57 725.14 680.57 731.85 680.77 738.16 683.53 742.79 688.36 747.43 693.2 749.89 699.61 749.79 706.31H631.94L632.14 705.52Z" fill="#000000" opacity="1" stroke-width="4" stroke="#000000"></path><path d="M517.05 706.41C504.13 706.41 493.38 697.14 491.31 684.42L488.75 668.15C486.87 668.24 484.9 668.34 483.03 668.34 442.2 668.34 419.32 639.84 419.02 639.55 401.17 659.37 377.31 680.37 377.01 680.57H377.11C388.16 680.57 397.03 689.55 397.03 700.59V706.31H344.96C342 693.98 339.14 682.35 336.38 671.1 312.52 574.56 298.12 516.17 359.75 474.26 376.82 462.62 394.67 456.71 412.71 456.71 435.59 456.71 471.39 466.57 512.52 513.41 539.93 544.58 605.42 631.85 606.11 632.74 619.91 611.93 641.21 589.64 650.78 589.64 651.17 589.64 651.57 589.64 651.87 589.74 656.01 590.63 661.23 626.43 661.43 627.91 677.51 636.39 684.31 658.28 684.31 658.48 684.31 658.48 689.83 660.95 693.68 662.52 696.93 663.91 699.3 666.86 699.79 670.41 700.48 675.25 699.4 680.87 696.54 687.28 691.41 698.82 679.87 706.31 667.25 706.31H517.05V706.41Z" fill="#8f227c" opacity="1" stroke-width="4" stroke="#000000"></path><path d="M483.03 668.44C442.2 668.44 419.32 639.94 419.02 639.64 419.22 639.35 442 615.38 451.77 586.09 454.82 588.36 456.01 594.18 457.49 601.48 460.54 616.07 464.69 636.09 486.28 647.24L488.75 668.24C486.87 668.34 484.9 668.44 483.03 668.44Z" fill="#8f227c00" opacity="0" stroke-width="4" stroke="#ffffff00"></path><path d="M661.63 628.11C658.28 626.82 654.72 626.13 651.17 626.13 648.61 626.13 646.05 626.53 643.58 627.22 645.26 614.6 648.12 602.07 652.16 589.94 656.2 590.83 661.43 626.53 661.63 628.11Z" fill="#8f227c00" opacity="0" stroke-width="4" stroke="#ffffff00"></path><path d="M537.96 627.32C536.68 627.32 535.6 627.02 534.72 626.43 527.12 621.3 535 595.76 553.74 564.3 561.14 573.77 569.22 584.22 577.7 595.27 561.23 615.09 545.95 627.32 537.96 627.32Z" fill="#ff17d8" opacity="1" stroke-width="4" stroke="#000000"></path><path d="M491.03 580.37C489.55 580.37 488.17 580.08 486.98 579.49 475.44 573.37 481.07 539.45 500.3 500.49 504.44 504.64 508.58 508.97 512.62 513.61 518.15 519.82 525.54 528.8 534.62 540.24 518.25 564.99 501.48 580.37 491.03 580.37Z" fill="#ff17d8" opacity="1" stroke-width="4" stroke="#000000"></path><path d="M356.81 474.16C346.06 481.66 338.96 489.64 332.55 498.32" stroke="#000000" stroke-width="4" stroke-linecap="round" stroke-linejoin="round" opacity="1" fill="none"></path><path d="M488.65 667.06L484.8 628.9" stroke="#000000" stroke-width="4" stroke-linecap="round" stroke-linejoin="round" opacity="1" fill="none"></path><path d="M419.02 639.55C435.3 621.4 452.46 598.52 456.4 580.37 461.63 556.21 454.33 533.63 446.05 518.74" stroke="#000000" stroke-width="4" stroke-linecap="round" stroke-linejoin="round" opacity="1" fill="none"></path><path d="M568.05 654.83L563.31 680.57H603.55C615.58 680.57 625.35 690.34 625.35 702.37V704.44" stroke="#000000" stroke-width="4" stroke-linecap="round" stroke-linejoin="round" opacity="1" fill="none"></path><path d="M700.2 674.16C700.1 674.16 692.11 672.98 691.22 670.12 690.14 666.86 695.56 663.61 695.66 663.61 698.13 665.19 699.71 667.75 700.1 670.51 700.2 671.79 700.3 672.98 700.2 674.16Z" fill="#000000" opacity="1" stroke-width="4" stroke="#000000"></path><path d="M670.22 661.54C671.8 661.54 673.08 660.26 673.08 658.68 673.08 657.1 671.8 655.82 670.22 655.82 668.63 655.82 667.36 657.1 667.36 658.68 667.36 660.26 668.63 661.54 670.22 661.54Z" fill="#130b19" opacity="1" stroke-width="4" stroke="#000000"></path></g></svg>