<svg width="315" height="44" viewBox="0 0 315 44" fill="none" xmlns="http://www.w3.org/2000/svg">
<rect width="315" height="44" rx="2" fill="#121212"/>
<rect x="0.5" y="0.5" width="314" height="43" rx="1.5" stroke="#161823" stroke-opacity="0.12"/>
<path d="M93.3238 26.18C95.3338 26.18 96.5788 25.115 97.3438 23.915L95.8438 23.165C95.3638 23.99 94.3888 24.62 93.3238 24.62C91.3438 24.62 89.8738 23.09 89.8738 21.005C89.8738 18.89 91.3438 17.39 93.3238 17.39C94.3888 17.39 95.3638 18.005 95.8438 18.845L97.3288 18.065C96.5938 16.865 95.3338 15.83 93.3238 15.83C90.3688 15.83 88.0738 17.915 88.0738 21.005C88.0738 24.08 90.3688 26.18 93.3238 26.18ZM101.973 26.18C104.283 26.18 105.693 24.44 105.693 22.37C105.693 20.285 104.283 18.575 101.973 18.575C99.6635 18.575 98.2535 20.285 98.2535 22.37C98.2535 24.44 99.6635 26.18 101.973 26.18ZM101.973 24.785C100.638 24.785 99.8885 23.66 99.8885 22.37C99.8885 21.095 100.638 19.97 101.973 19.97C103.323 19.97 104.058 21.095 104.058 22.37C104.058 23.66 103.323 24.785 101.973 24.785ZM113.782 26V20.9C113.782 19.415 113.002 18.575 111.442 18.575C110.302 18.575 109.357 19.16 108.877 19.73V18.755H107.302V26H108.877V20.93C109.252 20.45 109.942 19.97 110.737 19.97C111.622 19.97 112.207 20.33 112.207 21.47V26H113.782ZM118.017 26.18C118.737 26.18 119.202 25.97 119.487 25.715L119.112 24.515C118.992 24.65 118.722 24.785 118.422 24.785C117.972 24.785 117.732 24.41 117.732 23.915V20.12H119.202V18.755H117.732V16.775H116.157V18.755H114.957V20.12H116.157V24.305C116.157 25.52 116.787 26.18 118.017 26.18ZM121.412 17.87C121.952 17.87 122.387 17.435 122.387 16.895C122.387 16.355 121.952 15.92 121.412 15.92C120.872 15.92 120.437 16.355 120.437 16.895C120.437 17.435 120.872 17.87 121.412 17.87ZM122.192 26V18.755H120.617V26H122.192ZM130.715 26V20.9C130.715 19.415 129.935 18.575 128.375 18.575C127.235 18.575 126.29 19.16 125.81 19.73V18.755H124.235V26H125.81V20.93C126.185 20.45 126.875 19.97 127.67 19.97C128.555 19.97 129.14 20.33 129.14 21.47V26H130.715ZM139.226 26V18.755H137.651V23.84C137.291 24.32 136.601 24.785 135.806 24.785C134.906 24.785 134.336 24.425 134.336 23.3V18.755H132.761V23.885C132.761 25.355 133.541 26.18 135.101 26.18C136.241 26.18 137.141 25.61 137.651 25.04V26H139.226ZM144.631 26.18C145.771 26.18 146.836 25.805 147.571 25.115L146.851 24.08C146.326 24.605 145.501 24.89 144.781 24.89C143.416 24.89 142.606 23.975 142.486 22.895H148.066V22.505C148.066 20.225 146.686 18.575 144.511 18.575C142.366 18.575 140.836 20.27 140.836 22.37C140.836 24.665 142.441 26.18 144.631 26.18ZM146.551 21.77H142.471C142.531 20.9 143.161 19.865 144.496 19.865C145.921 19.865 146.506 20.915 146.551 21.77ZM161.468 26L163.718 18.755H162.068L160.538 24.02L158.828 18.755H157.433L155.708 24.02L154.178 18.755H152.543L154.793 26H156.443L158.123 20.69L159.818 26H161.468ZM165.607 17.87C166.147 17.87 166.582 17.435 166.582 16.895C166.582 16.355 166.147 15.92 165.607 15.92C165.067 15.92 164.632 16.355 164.632 16.895C164.632 17.435 165.067 17.87 165.607 17.87ZM166.387 26V18.755H164.812V26H166.387ZM170.62 26.18C171.34 26.18 171.805 25.97 172.09 25.715L171.715 24.515C171.595 24.65 171.325 24.785 171.025 24.785C170.575 24.785 170.335 24.41 170.335 23.915V20.12H171.805V18.755H170.335V16.775H168.76V18.755H167.56V20.12H168.76V24.305C168.76 25.52 169.39 26.18 170.62 26.18ZM179.7 26V20.87C179.7 19.385 178.92 18.575 177.36 18.575C176.22 18.575 175.29 19.16 174.81 19.73V15.995H173.235V26H174.81V20.93C175.17 20.45 175.86 19.97 176.67 19.97C177.555 19.97 178.125 20.3 178.125 21.44V26H179.7ZM189.797 26V17.54H192.827V15.995H185.012V17.54H188.042V26H189.797ZM195.065 17.87C195.605 17.87 196.04 17.435 196.04 16.895C196.04 16.355 195.605 15.92 195.065 15.92C194.525 15.92 194.09 16.355 194.09 16.895C194.09 17.435 194.525 17.87 195.065 17.87ZM195.845 26V18.755H194.27V26H195.845ZM204.668 26L201.608 22.04L204.608 18.755H202.658L199.463 22.25V15.995H197.888V26H199.463V24.05L200.483 23L202.688 26H204.668ZM209.163 26V17.54H212.193V15.995H204.378V17.54H207.408V26H209.163ZM215.338 26.18C217.648 26.18 219.058 24.44 219.058 22.37C219.058 20.285 217.648 18.575 215.338 18.575C213.028 18.575 211.618 20.285 211.618 22.37C211.618 24.44 213.028 26.18 215.338 26.18ZM215.338 24.785C214.003 24.785 213.253 23.66 213.253 22.37C213.253 21.095 214.003 19.97 215.338 19.97C216.688 19.97 217.423 21.095 217.423 22.37C217.423 23.66 216.688 24.785 215.338 24.785ZM227.446 26L224.386 22.04L227.386 18.755H225.436L222.241 22.25V15.995H220.666V26H222.241V24.05L223.261 23L225.466 26H227.446Z" fill="white"/>
<path fill-rule="evenodd" clip-rule="evenodd" d="M25.5172 25.0575C25.4647 26.4295 24.3093 27.5306 22.8929 27.5306C22.5691 27.5306 22.2591 27.4729 21.9727 27.3675C22.2591 27.4729 22.5692 27.5306 22.893 27.5306C24.3094 27.5306 25.4648 26.4295 25.5174 25.0576L25.5224 12.8063H27.8124C28.0331 13.971 28.7405 14.9704 29.7205 15.5948C29.7208 15.5952 29.7212 15.5956 29.7215 15.596C30.4037 16.0305 31.2171 16.284 32.0903 16.284V16.9645C32.0903 16.9645 32.0903 16.9645 32.0904 16.9646V19.3405C30.4684 19.3405 28.9654 18.8334 27.7386 17.9728V24.1852C27.7386 27.2878 25.1559 29.8119 21.9812 29.8119C20.7545 29.8119 19.6169 29.4338 18.6818 28.7921C18.6813 28.7916 18.6808 28.791 18.6802 28.7905C17.1964 27.7717 16.224 26.0876 16.224 24.1846C16.224 21.0821 18.8067 18.5579 21.9814 18.5579C22.2448 18.5579 22.503 18.5791 22.7572 18.6128V19.337C19.861 19.4031 17.4865 21.5682 17.1713 24.3333C17.4868 21.5685 19.8611 19.4037 22.7571 19.3376V21.7342C22.5115 21.6591 22.2519 21.6154 21.9812 21.6154C20.5314 21.6154 19.3519 22.7683 19.3519 24.1852C19.3519 25.1719 19.9247 26.0292 20.7616 26.4596C20.7616 26.4597 20.7616 26.4597 20.7616 26.4597C21.1265 26.6474 21.541 26.7549 21.9811 26.7549C23.3975 26.7549 24.5529 25.6538 24.6055 24.2819L24.6105 12.0305H27.7385C27.7385 12.2955 27.7646 12.5545 27.8123 12.8063H25.5223L25.5172 25.0575Z" fill="white"/>
</svg>
